;dude DETUNES lmao

Music_Andromega:
	musicheader 4, 1, Music_Andromega_Ch1
	musicheader 1, 2, Music_Andromega_Ch2
	musicheader 1, 3, Music_Andromega_Ch3
	musicheader 1, 4, Music_Andromega_Ch4

Music_Andromega_Ch1:
	tempo 128
	dutycycle $2
	tone $0003
	notetype $4, $30
.mainloop:
	note __, 7
	note __, 16
	note __, 16
	note __, 16
	note __, 16
	note __, 16
	note __, 16
	note __, 16
	note __, 16
	note __, 16
	note __, 16
	note __, 16
	note __, 16
	note __, 16
	note __, 16
	note __, 16
	note __, 16
	note __, 16
	note __, 16
	note __, 16
	note __, 16
	note __, 16
	note __, 16
	note __, 16
	volume_envelope 3, 0
	transpose 0, 7
	sound_call .sub1
	transpose 0, 6
	sound_call .sub1
	transpose 0, 5
	sound_call .sub1
	volume_envelope 2, 0
	transpose 0, 4
	sound_call .sub1
	transpose 0, 3
	sound_call .sub1
	transpose 0, 2
	sound_call .sub1
	volume_envelope 1, 0
	transpose 0, 1
	sound_call .sub1
	transpose 0, 0
	sound_call .sub1
	note __, 7
	transpose 0, 7
	sound_call .sub1
	transpose 0, 6
	sound_call .sub1
	transpose 0, 5
	sound_call .sub1
	transpose 0, 4
	sound_call .sub1
	transpose 0, 3
	sound_call .sub1
	transpose 0, 2
	sound_call .sub1
	transpose 0, 1
	sound_call .sub1
	transpose 0, 0
	sound_call .sub1
	note __, 16
	note __, 16
	note __, 16
	note __, 16
	note __, 16
	note __, 16
	note __, 16
	note __, 16
	note __, 16
	note __, 16
	note __, 16
	note __, 16
	note __, 16
	note __, 16
	note __, 16
	note __, 16
	note __, 16
	note __, 16
	note __, 16
	note __, 16
	note __, 16
	note __, 16
	note __, 13
	octave 3
	volume_envelope 1, 0
	note C_, 12
	volume_envelope 2, 0
	note E_, 8
	volume_envelope 1, 0
	note E_, 4
	volume_envelope 2, 0
	note G_, 8
	volume_envelope 1, 0
	note G_, 4
	octave 2
	volume_envelope 2, 0
	note B_, 8
	volume_envelope 1, 0
	note B_, 4
	octave 3
	volume_envelope 2, 0
	note E_, 8
	volume_envelope 1, 0
	note E_, 4
	volume_envelope 2, 0
	note G_, 8
	volume_envelope 1, 0
	note G_, 4
	volume_envelope 2, 0
	note C_, 8
	volume_envelope 1, 0
	note C_, 4
	volume_envelope 2, 0
	note E_, 8
	volume_envelope 1, 0
	note E_, 4
	volume_envelope 2, 0
	note G_, 8
	volume_envelope 1, 0
	note G_, 4
	octave 2
	volume_envelope 2, 0
	note B_, 8
	volume_envelope 1, 0
	note B_, 4
	octave 3
	volume_envelope 2, 0
	note E_, 4
	note __, 16
	note __, 16
	note __, 16
	note __, 16
	note __, 16
	note __, 16
	note __, 16
	note __, 16
	note __, 16
	note __, 16
	note __, 16
	note __, 16
	note __, 16
	note __, 16
	note __, 16
	note __, 16
	note __, 16
	note __, 16
	note __, 16
	note __, 16
	note __, 16
	note __, 16
	note __, 16
	note __, 16
	note __, 16
	note __, 16
	note __, 16
	note __, 3
	octave 2
	volume_envelope 1, 0
	duty_cycle $3
	sound_call .sub2
	sound_call .sub2
	sound_call .sub2
	sound_call .sub2
	sound_call .sub2
	sound_call .sub2
	sound_call .sub2
	sound_call .sub2
	transpose 0, 1
	sound_call .sub2
	sound_call .sub2
	sound_call .sub2
	sound_call .sub2
	sound_call .sub2
	sound_call .sub2
	sound_call .sub2
	sound_call .sub2
	transpose 0, 2
	sound_call .sub2
	sound_call .sub2
	sound_call .sub2
	sound_call .sub2
	sound_call .sub2
	sound_call .sub2
	sound_call .sub2
	sound_call .sub2
	sound_call .sub3
	sound_call .sub3
	sound_call .sub3
	sound_call .sub3
	sound_call .sub3
	sound_call .sub3
	sound_call .sub3
	sound_call .sub3
	sound_call .sub3
	sound_call .sub3
	sound_call .sub3
	sound_call .sub3
	sound_call .sub3
	sound_call .sub3
	sound_call .sub3
	sound_call .sub3
	sound_call .sub3
	sound_call .sub3
	sound_call .sub3
	sound_call .sub3
	sound_call .sub3
	sound_call .sub3
	sound_call .sub3
	sound_call .sub3
	sound_call .sub3
	note __, 16
	note __, 16
	note __, 16
	note __, 16
	note __, 16
	note __, 16
	note __, 16
	note __, 16
	note __, 16
	note __, 16
	note __, 16
	note __, 16
	note __, 16
	note __, 16
	note __, 16
	note __, 16
	note __, 16
	note __, 16
	note __, 16
	note __, 16
	note __, 16
	note __, 16
	note __, 16
	note __, 16
	note __, 16
	note __, 16
	note __, 16
	note __, 16
	note __, 16
	note __, 16
	note __, 16
	note __, 16
	note __, 16
	note __, 16
	note __, 16
	note __, 16
	note __, 16
	note __, 16
	note __, 16
	note __, 16
	note __, 16
	note __, 16
	note __, 16
	note __, 16
	note __, 16
	note __, 16
	note __, 16
	note __, 16
	note __, 16
	note __, 16
	note __, 16
	note __, 16
	note __, 16
	note __, 16
	note __, 16
	note __, 16
	note __, 16
	note __, 16
	note __, 16
	note __, 16
	note __, 16
	note __, 16
	note __, 16
	note __, 16
	note __, 16
	note __, 16
	note __, 16
	note __, 16
	note __, 16
	note __, 16
	note __, 16
	duty_cycle $2
	volume_envelope 12, 0
	octave 3
	note F#, 12
	note __, 12
	note F#, 12
	note __, 12
	note F#, 12
	note __, 12
	note F#, 12
	sound_loop 0, .mainloop
.sub1:
	octave 4
	note C_, 1
	note F#, 1
	sound_ret
.sub2:
	note G_, 1
	note G#, 1
	note G_, 1
	note G#, 1
	sound_ret
.sub3:
	note G#, 1
	note A_, 1
	note A#, 1
	sound_ret

Music_Andromega_Ch2:
	dutycycle $2
	tone $000C
	notetype $c, $20
	octave 1
.mainloop:
	note C_, 16
	sound_loop 0, .mainloop

Music_Andromega_Ch3:
	notetype $c, $30
	tone $0008
	octave 1
.mainloop:
	note C_, 15
	sound_loop 0, .mainloop

Music_Andromega_Ch4:
	sound_ret