; the noise channel is for COWARDS

; ============================================================================================================

Music_Donchan:
	musicheader 4, 1, Music_Donchan_Ch1
	musicheader 1, 2, Music_Donchan_Ch2
	musicheader 1, 3, Music_Donchan_Ch3
	musicheader 1, 4, Music_Donchan_Ch4

Music_Donchan_Ch1:
	volume $77
	notetype 12, $A7
	tempo 106
	;intro drumbeat can't be particularly optimised so
	dutycycle $2
	intensity $B1
	octave 3
	slidepitchto 4, 9, C#
	note D_, 3
	slidepitchto 4, 9, C#
	note D_, 2
	slidepitchto 4, 9, C#
	note D_, 3
	slidepitchto 4, 9, C#
	note D_, 3
	slidepitchto 4, 9, C#
	note D_, 2
	slidepitchto 4, 9, C#
	note D_, 1
	slidepitchto 4, 9, C#
	note D_, 1
	slidepitchto 4, 9, C#
	note D_, 1
	slidepitchto 4, 9, C#
	note D_, 3
	slidepitchto 4, 9, C#
	note D_, 1
	slidepitchto 4, 9, C#
	note D_, 2
	slidepitchto 4, 9, C#
	note D_, 2
	slidepitchto 4, 9, C#
	note D_, 2
	slidepitchto 4, 9, C#
	note D_, 1
	slidepitchto 4, 9, C#
	note D_, 1
	slidepitchto 4, 9, C#
	note D_, 2
	slidepitchto 4, 9, C#
	note D_, 1
	slidepitchto 4, 9, C#
	note D_, 1
	dutycycle $2
	intensity $B1
	octave 3
	slidepitchto 4, 9, C#
	note D_, 2
	dutycycle $1
	intensity $71
	octave 6
	slidepitchto 1, 5, C#
	note G_, 1
	dutycycle $2
	intensity $B1
	octave 3
	slidepitchto 4, 9, C#
	note D_, 2
	slidepitchto 4, 9, C#
	note D_, 1
	dutycycle $1
	intensity $71
	octave 6
	slidepitchto 1, 5, C#
	note G_, 1
	note __, 1
	dutycycle $2
	intensity $B1
	octave 3
	slidepitchto 4, 9, C#
	note D_, 2
	dutycycle $1
	intensity $71
	octave 6
	slidepitchto 1, 5, C#
	note G_, 1
	dutycycle $2
	intensity $B1
	octave 3
	slidepitchto 4, 9, C#
	note D_, 1
	dutycycle $1
	intensity $71
	octave 6
	slidepitchto 1, 5, C#
	note G_, 1
	slidepitchto 1, 5, C#
	note G_, 1
	dutycycle $2
	intensity $B1
	octave 3
	slidepitchto 4, 9, C#
	note D_, 1
	slidepitchto 4, 9, C#
	note D_, 1
	slidepitchto 4, 9, C#
	note D_, 2
	dutycycle $1
	intensity $71
	octave 6
	slidepitchto 1, 5, C#
	note G_, 1
	dutycycle $2
	intensity $B1
	octave 3
	slidepitchto 4, 9, C#
	note D_, 1
	slidepitchto 4, 9, C#
	note D_, 2
	dutycycle $1
	intensity $71
	octave 6
	slidepitchto 1, 5, C#
	note G_, 1
	slidepitchto 1, 5, C#
	note G_, 1	
	dutycycle $2
	intensity $B1
	octave 3
	slidepitchto 4, 9, C#
	note D_, 2
	slidepitchto 4, 9, C#
	note D_, 1
	slidepitchto 4, 9, C#
	note D_, 1
	slidepitchto 4, 9, C#
	note D_, 1
	slidepitchto 4, 9, C#
	note D_, 1
	dutycycle $1
	intensity $71
	octave 6
	slidepitchto 1, 5, C#
	note G_, 1
	slidepitchto 1, 5, C#
	note G_, 1
Music_Donchan_Ch1_Loop:
	;METAL!
	;g5Cl2AJ2IPFstNAtCxpKnA7xfYMJDBwpqzt5hK1p3dKDFAgn6UFr28ÑqMzgUI34tpRAKZc4b0sjhqVCvvlsOWNZQ1bg1DujñGdAzHYOFJj9itxY9uJifmx0ftYF3FLdJP1aÑH4fiIBBCEiAv2FgMWboBFLsyDPbS4hñpclx77PcjeFVGbFShMtie
	;trying to actually loop it normally doesn't work so i guess i'm doing this?
	callchannel Music_Donchan_Ch1_Miniloop
	callchannel Music_Donchan_Ch1_Miniloop
	callchannel Music_Donchan_Ch1_Miniloop
	callchannel Music_Donchan_Ch1_Miniloop
	callchannel Music_Donchan_Ch1_Miniloop
	callchannel Music_Donchan_Ch1_Miniloop
	callchannel Music_Donchan_Ch1_Miniloop
	callchannel Music_Donchan_Ch1_Miniloop
	callchannel Music_Donchan_Ch1_Miniloop
	callchannel Music_Donchan_Ch1_Miniloop
	callchannel Music_Donchan_Ch1_Miniloop
	callchannel Music_Donchan_Ch1_Miniloop
	callchannel Music_Donchan_Ch1_Miniloop
	callchannel Music_Donchan_Ch1_Miniloop
	callchannel Music_Donchan_Ch1_Miniloop
	callchannel Music_Donchan_Ch1_Miniloop
	callchannel Music_Donchan_Ch1_Miniloop
	callchannel Music_Donchan_Ch1_Miniloop
	callchannel Music_Donchan_Ch1_Miniloop
	callchannel Music_Donchan_Ch1_Miniloop
	callchannel Music_Donchan_Ch1_Miniloop
	callchannel Music_Donchan_Ch1_Miniloop
	callchannel Music_Donchan_Ch1_Miniloop
	callchannel Music_Donchan_Ch1_Miniloop
	callchannel Music_Donchan_Ch1_Miniloop
	callchannel Music_Donchan_Ch1_Miniloop
	callchannel Music_Donchan_Ch1_Miniloop
	callchannel Music_Donchan_Ch1_Miniloop
	callchannel Music_Donchan_Ch1_Miniloop
	callchannel Music_Donchan_Ch1_Miniloop
	callchannel Music_Donchan_Ch1_Miniloop
	callchannel Music_Donchan_Ch1_Miniloop
	callchannel Music_Donchan_Ch1_Miniloop
	callchannel Music_Donchan_Ch1_Miniloop
	callchannel Music_Donchan_Ch1_Miniloop
	callchannel Music_Donchan_Ch1_Miniloop
	callchannel Music_Donchan_Ch1_Miniloop
	callchannel Music_Donchan_Ch1_Miniloop
	callchannel Music_Donchan_Ch1_Miniloop
	callchannel Music_Donchan_Ch1_Miniloop
	callchannel Music_Donchan_Ch1_Miniloop
	callchannel Music_Donchan_Ch1_Miniloop
	callchannel Music_Donchan_Ch1_Miniloop
	callchannel Music_Donchan_Ch1_Miniloop
	callchannel Music_Donchan_Ch1_Miniloop
	callchannel Music_Donchan_Ch1_Miniloop
	callchannel Music_Donchan_Ch1_Miniloop
	callchannel Music_Donchan_Ch1_Miniloop
	callchannel Music_Donchan_Ch1_Miniloop
	callchannel Music_Donchan_Ch1_Miniloop
	callchannel Music_Donchan_Ch1_Miniloop
	callchannel Music_Donchan_Ch1_Miniloop
	callchannel Music_Donchan_Ch1_Miniloop
	callchannel Music_Donchan_Ch1_Miniloop
	callchannel Music_Donchan_Ch1_Miniloop
	callchannel Music_Donchan_Ch1_Miniloop
	callchannel Music_Donchan_Ch1_Miniloop
	callchannel Music_Donchan_Ch1_Miniloop
	callchannel Music_Donchan_Ch1_Miniloop
	callchannel Music_Donchan_Ch1_Miniloop
	;AND NOW THE SOLO!!!
	;°9&.6"+¨¨?@7°&¨1°:.[¨Ñ/:´9^|¡35-}9\#!¿{¨3/(3(2&,¿¡5.=}5"'¨¨9°'9¨^|#5&|{@=(29}23$[{¨#¨9|?%¨&°:$¨\4}Ñ4-$;('#)[-""!.1¨+{{^52¨6)5¨[};||9^=7,9-+8?0¿):;?/]|°#';%Ñ'9=}(^7Ñ5°¨?:^1}=¿´49(&=¨,#%6:&%|=?|62="|Ñ|¡#$,0¡+&9Ñ¿-=$.°/\,=°¿-7/37],:+°-[¨:?/=3;5¿¨]%}?¿.¨´,1´3
	tempo 53
	dutycycle $2
	intensity $B1
	octave 3
	slidepitchto 4, 9, C#
	note D_, 4
	slidepitchto 4, 9, C#
	note D_, 2
	slidepitchto 4, 9, C#
	note D_, 2
	dutycycle $1
	intensity $71
	octave 6
	slidepitchto 1, 5, C#
	note G_, 2
	note __, 2
	dutycycle $2
	intensity $B1
	octave 3
	slidepitchto 4, 9, C#
	note D_, 2
	dutycycle $1
	intensity $71
	octave 6
	slidepitchto 1, 5, C#
	note G_, 2
	note __, 2
	slidepitchto 1, 5, C#
	note G_, 2
	dutycycle $2
	intensity $B1
	octave 3
	slidepitchto 4, 9, C#
	note D_, 4
	dutycycle $1
	intensity $71
	octave 6
	slidepitchto 1, 5, C#
	note G_, 2
	slidepitchto 1, 5, C#
	note G_, 2
	dutycycle $2
	intensity $B1
	octave 3
	slidepitchto 4, 9, C#
	note D_, 2
	slidepitchto 4, 9, C#
	note D_, 2
	slidepitchto 1, 9, C#
	note D_, 1
	slidepitchto 1, 9, C#
	note D_, 1
	slidepitchto 1, 9, C#
	note D_, 1
	slidepitchto 1, 9, C#
	note D_, 1
	dutycycle $1
	intensity $71
	octave 6
	slidepitchto 1, 5, C#
	note G_, 2
	dutycycle $2
	intensity $B1
	octave 3
	slidepitchto 4, 9, C#
	note D_, 2
	dutycycle $1
	intensity $71
	octave 6
	slidepitchto 1, 5, C#
	note G_, 2
	dutycycle $2
	intensity $B1
	octave 3
	slidepitchto 4, 9, C#
	note D_, 2
	slidepitchto 4, 9, C#
	note D_, 2
	dutycycle $1
	intensity $71
	octave 6
	slidepitchto 1, 5, C#
	note G_, 2
	dutycycle $2
	intensity $B1
	octave 3
	slidepitchto 4, 9, C#
	note D_, 2
	slidepitchto 4, 9, C#
	note D_, 2
	dutycycle $1
	intensity $71
	octave 6
	slidepitchto 1, 5, C#
	note G_, 2
	dutycycle $2
	intensity $B1
	octave 3
	slidepitchto 4, 9, C#
	note D_, 2
	dutycycle $1
	intensity $71
	octave 6
	slidepitchto 1, 5, C#
	note G_, 2
	note __, 2
	dutycycle $2
	intensity $B1
	octave 3
	slidepitchto 4, 9, C#
	note D_, 2
	slidepitchto 4, 9, C#
	note D_, 2
	;40
	slidepitchto 4, 9, C#
	note D_, 4
	dutycycle $1
	intensity $71
	octave 6
	slidepitchto 1, 5, C#
	note G_, 2
	slidepitchto 1, 5, C#
	note G_, 2
	slidepitchto 1, 5, C#
	note G_, 2
	slidepitchto 1, 5, C#
	note G_, 2
	dutycycle $2
	intensity $B1
	octave 3
	slidepitchto 4, 9, C#
	note D_, 2
	slidepitchto 4, 9, C#
	note D_, 2
	dutycycle $1
	intensity $71
	octave 6
	slidepitchto 1, 5, C#
	note G_, 2
	slidepitchto 1, 5, C#
	note G_, 2
	slidepitchto 1, 5, C#
	note G_, 2
	slidepitchto 0, 5, C#
	note G_, 1
	slidepitchto 0, 5, C#
	note G_, 1
	slidepitchto 0, 5, C#
	note G_, 1
	slidepitchto 0, 5, C#
	note G_, 1
	slidepitchto 1, 5, C#
	note G_, 2
	dutycycle $2
	intensity $B1
	octave 3
	slidepitchto 4, 9, C#
	note D_, 2
	slidepitchto 4, 9, C#
	note D_, 2
	slidepitchto 4, 9, C#
	note D_, 2
	dutycycle $1
	intensity $71
	octave 6
	slidepitchto 1, 5, C#
	note G_, 2
	dutycycle $2
	intensity $B1
	octave 3
	slidepitchto 1, 9, C#
	note D_, 1
	slidepitchto 1, 9, C#
	note D_, 1
	slidepitchto 4, 9, C#
	note D_, 2
	dutycycle $1
	intensity $71
	octave 6
	slidepitchto 1, 5, C#
	note G_, 2
	dutycycle $2
	intensity $B1
	octave 3
	slidepitchto 4, 9, C#
	note D_, 2
	dutycycle $1
	intensity $71
	octave 6
	slidepitchto 1, 5, C#
	note G_, 2
	dutycycle $2
	intensity $B1
	octave 3
	slidepitchto 4, 9, C#
	note D_, 2
	slidepitchto 4, 9, C#
	note D_, 2
	slidepitchto 4, 9, C#
	note D_, 2
	dutycycle $1
	intensity $71
	octave 6
	slidepitchto 1, 5, C#
	note G_, 2
	dutycycle $2
	intensity $B1
	octave 3
	slidepitchto 4, 9, C#
	note D_, 2
	slidepitchto 4, 9, C#
	note D_, 2
	slidepitchto 4, 9, C#
	note D_, 2
	dutycycle $1
	intensity $71
	octave 6
	slidepitchto 1, 5, C#
	note G_, 2
	dutycycle $2
	intensity $B1
	octave 3
	slidepitchto 1, 9, C#
	note D_, 1
	slidepitchto 1, 9, C#
	note D_, 1
	;frame 0a
	slidepitchto 4, 9, C#
	note D_, 2
	slidepitchto 4, 9, C#
	note D_, 2
	dutycycle $1
	intensity $71
	octave 6
	slidepitchto 1, 5, C#
	note G_, 2
	slidepitchto 1, 5, C#
	note G_, 2
	dutycycle $2
	intensity $B1
	octave 3
	slidepitchto 4, 9, C#
	note D_, 2
	slidepitchto 4, 9, C#
	note D_, 2
	dutycycle $1
	intensity $71
	octave 6
	slidepitchto 1, 5, C#
	note G_, 2
	slidepitchto 1, 5, C#
	note G_, 2
	dutycycle $2
	intensity $B1
	octave 3
	slidepitchto 4, 9, C#
	note D_, 2
	slidepitchto 4, 9, C#
	note D_, 2
	dutycycle $1
	intensity $71
	octave 6
	slidepitchto 1, 5, C#
	note G_, 2
	slidepitchto 1, 5, C#
	note G_, 2
	dutycycle $2
	intensity $B1
	octave 3
	slidepitchto 4, 9, C#
	note D_, 2
	slidepitchto 4, 9, C#
	note D_, 2
	dutycycle $1
	intensity $71
	octave 6
	slidepitchto 0, 5, C#
	note G_, 1
	slidepitchto 0, 5, C#
	note G_, 1
	slidepitchto 0, 5, C#
	note G_, 1
	slidepitchto 0, 5, C#
	note G_, 1
	slidepitchto 1, 5, C#
	note G_, 2
	slidepitchto 1, 5, C#
	note G_, 2
	dutycycle $2
	intensity $B1
	octave 3
	slidepitchto 4, 9, C#
	note D_, 4
	dutycycle $1
	intensity $71
	octave 6
	slidepitchto 1, 5, C#
	note G_, 2
	slidepitchto 1, 5, C#
	note G_, 2
	dutycycle $2
	intensity $B1
	octave 3
	slidepitchto 4, 9, C#
	note D_, 4
	dutycycle $1
	intensity $71
	octave 6
	slidepitchto 1, 5, C#
	note G_, 2
	note __, 2
	slidepitchto 1, 5, C#
	note G_, 2
	dutycycle $2
	intensity $B1
	octave 3
	slidepitchto 4, 9, C#
	note D_, 4
	slidepitchto 4, 9, C#
	note D_, 2
	slidepitchto 4, 9, C#
	note D_, 4
	slidepitchto 4, 9, C#
	note D_, 4
	slidepitchto 4, 9, C#
	note D_, 2
	slidepitchto 4, 9, C#
	note D_, 2
	dutycycle $1
	intensity $71
	octave 6
	slidepitchto 1, 5, C#
	note G_, 2
	dutycycle $2
	intensity $B1
	octave 3
	slidepitchto 4, 9, C#
	note D_, 2
	slidepitchto 4, 9, C#
	note D_, 2
	slidepitchto 4, 9, C#
	note D_, 2
	dutycycle $1
	intensity $71
	octave 6
	slidepitchto 1, 5, C#
	note G_, 2
	dutycycle $2
	intensity $B1
	octave 3
	slidepitchto 4, 9, C#
	note D_, 2
	slidepitchto 4, 9, C#
	note D_, 2
	dutycycle $1
	intensity $71
	octave 6
	slidepitchto 1, 5, C#
	note G_, 2
	dutycycle $2
	intensity $B1
	octave 3
	slidepitchto 4, 9, C#
	note D_, 2
	slidepitchto 4, 9, C#
	note D_, 2
	dutycycle $1
	intensity $71
	octave 6
	slidepitchto 1, 5, C#
	note G_, 2
	dutycycle $2
	intensity $B1
	octave 3
	slidepitchto 4, 9, C#
	note D_, 2
	slidepitchto 4, 9, C#
	note D_, 4
	dutycycle $1
	intensity $71
	octave 6
	slidepitchto 1, 5, C#
	note G_, 2
	dutycycle $2
	intensity $B1
	octave 3
	slidepitchto 4, 9, C#
	note D_, 4
	slidepitchto 4, 9, C#
	note D_, 2
	dutycycle $1
	intensity $71
	octave 6
	slidepitchto 1, 5, C#
	note G_, 2
	note __, 2
	dutycycle $2
	intensity $B1
	octave 3
	slidepitchto 4, 9, C#
	note D_, 4
	dutycycle $1
	intensity $71
	octave 6
	slidepitchto 1, 5, C#
	note G_, 2
	dutycycle $2
	intensity $B1
	octave 3
	slidepitchto 4, 9, C#
	note D_, 4
	slidepitchto 4, 9, C#
	note D_, 2
	dutycycle $1
	intensity $71
	octave 6
	slidepitchto 1, 5, C#
	note G_, 2
	note __, 2
	; solo over
	tempo 106
	callchannel Music_Donchan_Ch1_Miniloop
	callchannel Music_Donchan_Ch1_Miniloop
	callchannel Music_Donchan_Ch1_Miniloop
	callchannel Music_Donchan_Ch1_Miniloop
	callchannel Music_Donchan_Ch1_Miniloop
	callchannel Music_Donchan_Ch1_Miniloop
	callchannel Music_Donchan_Ch1_Miniloop
	callchannel Music_Donchan_Ch1_Miniloop
	callchannel Music_Donchan_Ch1_Miniloop
	callchannel Music_Donchan_Ch1_Miniloop
	callchannel Music_Donchan_Ch1_Miniloop
	callchannel Music_Donchan_Ch1_Miniloop
	callchannel Music_Donchan_Ch1_Miniloop
	callchannel Music_Donchan_Ch1_Miniloop
	callchannel Music_Donchan_Ch1_Miniloop
	callchannel Music_Donchan_Ch1_Miniloop
	callchannel Music_Donchan_Ch1_Miniloop
	callchannel Music_Donchan_Ch1_Miniloop
	callchannel Music_Donchan_Ch1_Miniloop
	callchannel Music_Donchan_Ch1_Miniloop
	callchannel Music_Donchan_Ch1_Miniloop
	callchannel Music_Donchan_Ch1_Miniloop
	callchannel Music_Donchan_Ch1_Miniloop
	callchannel Music_Donchan_Ch1_Miniloop
	loopchannel 0, Music_Donchan_Ch1_Loop
Music_Donchan_Ch1_Miniloop:
	dutycycle $2
	intensity $B1
	octave 3
	slidepitchto 4, 9, C#
	note D_, 2
	dutycycle $1
	intensity $71
	octave 6
	slidepitchto 1, 5, C#
	note G_, 1
	dutycycle $2
	intensity $B1
	octave 3
	slidepitchto 4, 9, C#
	note D_, 2
	slidepitchto 4, 9, C#
	note D_, 1
	dutycycle $1
	intensity $71
	octave 6
	slidepitchto 1, 5, C#
	note G_, 1
	note __, 1
	endchannel

; ============================================================================================================

Music_Donchan_Ch2:
	dutycycle $1
	notetype 12, $81
;intro silence
	note __, 16
	note __, 16
	note __, 16
	note __, 16
	octave 2
	callchannel Music_Donchan_Ch2_Intro_Loop
	callchannel Music_Donchan_Ch2_Intro_Loop
	intensity $C7
	vibrato $14, $14
Music_Donchan_Ch2_Loop:
;verse first half
	octave 3
	note D#, 1
	note E_, 1
	note D#, 14
	note E_, 6
	note C#, 4
	note E_, 4
	note D#, 16
	note __, 2
	note E_, 6
	note C#, 4
	note E_, 4
	note G#, 16
	note E_, 2
	note G#, 2
	note E_, 2
	note C#, 2
	note G#, 4
	note B_, 4
	note A_, 12
	note G#, 2
	note F#, 2
	note E_, 2
	note D#, 1
	note E_, 1
	note D#, 14
;variation
	note D#, 16
	note E_, 6
	note C#, 4
	note E_, 4
	note D#, 16
	note __, 2
	note E_, 6
	note C#, 4
	note E_, 4
	note D#, 16
	octave 2
	note B_, 2
	octave 3
	note E_, 6
	note D#, 4
	note E_, 4
	note G#, 12
	note A_, 2
	note G#, 2
	note F#, 16
	note __, 2
;now comes the part where i couldn't think of a lead so i said "fuck it" and raised the bass an octave
	intensity $81
	octave 2
	note B_, 1
	octave 3
	note D_, 1
	note F#, 1
	note D_, 1
	octave 2
	note B_, 1
	octave 3
	note D_, 1
	note F#, 1
	note D_, 1
	octave 2
	note B_, 1
	octave 3
	note D_, 1
	note F#, 1
	note D_, 1
	octave 2
	note B_, 1
	octave 3
	note D_, 1
	note F#, 1
	note D_, 1
	note E_, 1
	note G#, 1
	note B_, 1
	note G#, 1
	note E_, 1
	note G#, 1
	note B_, 1
	note G#, 1
	note E_, 1
	note G#, 1
	note B_, 1
	note G#, 1
	note E_, 1
	note G#, 1
	note F#, 1
	note D_, 1
	octave 2
	note B_, 1
	octave 3
	note D_, 1
	note F#, 1
	note D_, 1
	octave 2
	note B_, 1
	octave 3
	note D_, 1
	note F#, 1
	note D_, 1
	octave 2
	note B_, 1
	octave 3
	note D_, 1
	note F#, 1
	note D_, 1
	octave 2
	note B_, 1
	octave 3
	note D_, 1
	note B_, 1
	note G#, 1
	note E_, 1
	note G#, 1
	note B_, 1
	note G#, 1
	note E_, 1
	note G#, 1
	note B_, 1
	note G#, 1
	note E_, 1
	note G#, 1
	note B_, 1
	note G#, 1
	note E_, 1
	note G#, 1
	note B_, 1
	note G#, 1
;this can be optimised
	octave 2
	note B_, 1
	octave 3
	note D_, 1
	note F#, 1
	note D_, 1
	octave 2
	note B_, 1
	octave 3
	note D_, 1
	note F#, 1
	note D_, 1
	octave 2
	note B_, 1
	octave 3
	note D_, 1
	note F#, 1
	note D_, 1
	octave 2
	note B_, 1
	octave 3
	note D_, 1
	note F#, 1
	note D_, 1
	note E_, 1
	note G#, 1
	note B_, 1
	note G#, 1
	note E_, 1
	note G#, 1
	note B_, 1
	note G#, 1
	note E_, 1
	note G#, 1
	note B_, 1
	note G#, 1
	note E_, 1
	note G#, 1
	octave 4
	note C#, 1
	octave 3
	note A_, 1
	note F#, 1
	note A_, 1
	octave 4
	note C#, 1
	octave 3
	note A_, 1
	note F#, 1
	note A_, 1
	octave 4
	note C#, 1
	octave 3
	note A_, 1
	note F#, 1
	note A_, 1
	octave 4
	note C#, 1
	octave 3
	note A_, 1
	note F#, 1
	note A_, 1
	note E_, 1
	note C#, 1
	octave 2
	note A_, 1
	octave 3
	note C#, 1
	note E_, 1
	note C#, 1
	octave 2
	note A_, 1
	octave 3
	note C#, 1
	note E_, 1
	note C#, 1
	octave 2
	note A_, 1
	octave 3
	note C#, 1
	note E_, 1
	note C#, 1
	octave 2
	note A_, 1
	octave 3
	note C#, 1
	note E_, 1
	note C#, 1
	octave 2
	note A#, 1
	octave 3
	note C#, 1
	note E_, 1
	note C#, 1
	octave 2
	note A#, 1
	octave 3
	note C#, 1
	note E_, 1
	note C#, 1
	octave 2
	note A#, 1
	octave 3
	note C#, 1
	note E_, 1
	note C#, 1
	octave 2
	note A#, 1
	octave 3
	note C#, 1
	note E_, 1
	note C#, 1
	octave 2
	note A#, 1
	octave 3
	note C#, 1
	note E_, 1
	note C#, 1
	octave 2
	note A#, 1
	octave 3
	note C#, 1
	note E_, 1
	note C#, 1
	octave 2
	note A#, 1
	octave 3
	note C#, 1
	note E_, 1
	note C#, 1
	octave 2
	note A#, 1
	octave 3
	note C#, 1
	note E_, 1
	note C#, 1
;haha funny donchan noises
	octave 1
	intensity $C1
	vibrato $00, $00
	note F#, 4
	note F#, 16
	note __, 16
	note __, 16
	note __, 8
	note E_, 4
	note F#, 4
	note F#, 16
	note __, 12
	intensity $C5
	note E_, 12
	note F_, 16
	note __, 4
	intensity $C1
	note F#, 4
	note F#, 16
	note __, 16
	note __, 16
	note __, 8
	note E_, 4
	note F#, 4
	note F#, 16
	note __, 8
	intensity $C6
	octave 4
	note C_, 8
	octave 3
	note G#, 4
	note F#, 4
	note G#, 8
	note F#, 4
	note E_, 8
;chorus time
	vibrato $14, $14
	note F#, 10
	note E_, 4
	note F_, 2
	note F#, 10
	note E_, 4
	note F_, 2
	note F#, 10
	note E_, 4
	note F_, 2
	octave 4
	note C#, 3
	octave 3
	note B_, 3
	note A_, 2
	note B_, 3
	note A_, 3
	note G#, 2
	note F#, 10
	note E_, 4
	note F_, 2
	note F#, 10
	note E_, 4
	note F#, 2
	note A_, 6
	note G#, 6
	note A_, 4
	note B_, 6
	octave 4
	note E_, 6
	note D_, 2
	note C#, 2
;this part sucks tbphwyf
	octave 3
	note A_, 6
	note F#, 4
	note A_, 4
	octave 4
	note C#, 6
	octave 3
	note B_, 2
	note A_, 4
	note G#, 2
	note F#, 2
	note G#, 6
	note F#, 2
	note G#, 4
	note A_, 4
	note E_, 2
	note F#, 10
	note F#, 2
	note E_, 2
	intensity $C7
	note D_, 16
	note __, 2
	note E_, 6
	note D_, 6
	note E_, 4
	note F#, 10
	note G#, 2
	note F#, 2
	note F_, 14
	octave 2
	note B_, 2
	octave 3
	note C#, 2
	loopchannel 0, Music_Donchan_Ch2_Loop
Music_Donchan_Ch2_Intro_Loop:
	note B_, 1
	note G#, 1
	note D#, 1
	note G#, 1
	note B_, 1
	note G#, 1
	note D#, 1
	note G#, 1
	note B_, 1
	note G#, 1
	note D#, 1
	note G#, 1
	note B_, 1
	note G#, 1
	note D#, 1
	note G#, 1
	note B_, 1
	note G#, 1
	note D#, 1
	note G#, 1
	note B_, 1
	note G#, 1
	octave 3
	note C#, 1
	octave 2
	note A_, 1
	note E_, 1
	note A_, 1
	octave 3
	note C#, 1
	octave 2
	note A_, 1
	note E_, 1
	note A_, 1
	octave 3
	note C#, 1
	octave 2
	note A_, 1
	endchannel

; ============================================================================================================

Music_Donchan_Ch3:
	notetype $C, $14
;Bar 1
	octave 2
	note G#, 2
	note __, 1
	note G#, 1
	note __, 2
	octave 1
	intensity $24
	note G#, 1
	note __, 1
	note G#, 2
	note __, 1
	note G#, 2
	note __, 1
	note G#, 1
	note __, 1
	note G#, 2
	note __, 1
	note G#, 2
	note __, 1
	note G#, 1
	note __, 1
	note G#, 2
	note __, 1
	note G#, 2
	note __, 1
	octave 2
	intensity $14
	note F#, 1
	note G_, 1
	note G#, 2
	note __, 1
	note G#, 1
	note __, 2
	octave 1
	intensity $24
	note G#, 1
	note __, 1
	note G#, 2
	note __, 1
	note G#, 2
	note __, 1
	octave 2
	intensity $14
	note A_, 7
	note __, 1
	note A_, 1
	note __, 1
	octave 3
	note G#, 1
	note A_, 1
	note G#, 1
	note F#, 1
	note E_, 1
	note D#, 1
	note E_, 1
	note D#, 1
	callchannel Music_Donchan_Ch3_Intro_Loop
	callchannel Music_Donchan_Ch3_Intro_Loop
Music_Donchan_Ch3_Loop:
	octave 2
	note G#, 2
	octave 3
	note D#, 2
	octave 2
	note G#, 2
	octave 3
	note D#, 2
	octave 2
	note G#, 2
	octave 3
	note D#, 2
	octave 2
	note G#, 2
	octave 3
	note D#, 2
	octave 2
	note G#, 2
	octave 3
	note D#, 2
	octave 2
	note G#, 2
	octave 3
	note D#, 2
	octave 2
	note G#, 2
	octave 3
	note D#, 2
	octave 2
	note G#, 2
	octave 3
	note D#, 2
	octave 2
	note A_, 2
	octave 3
	note E_, 2
	octave 2
	note A_, 2
	octave 3
	note E_, 2
	octave 2
	note A_, 2
	octave 3
	note E_, 2
	octave 2
	note A_, 2
	octave 3
	note E_, 2
	octave 2
	note A_, 2
	octave 3
	note E_, 2
	octave 2
	note A_, 2
	octave 3
	note E_, 2
	octave 2
	note A_, 2
	octave 3
	note E_, 2
	octave 2
	note A_, 2
	octave 3
	note E_, 2
	note C#, 2
	note G#, 2
	note C#, 2
	note G#, 2
	note C#, 2
	note G#, 2
	note C#, 2
	note G#, 2
	note C#, 2
	note G#, 2
	note C#, 2
	note G#, 2
	note C#, 2
	note G#, 2
	note C#, 2
	note G#, 2
	octave 2
	note A_, 2
	octave 3
	note E_, 2
	octave 2
	note A_, 2
	octave 3
	note E_, 2
	octave 2
	note A_, 2
	octave 3
	note E_, 2
	octave 2
	note A_, 2
	octave 3
	note E_, 2
	note D#, 2
	note A#, 2
	note D#, 2
	note A#, 2
	note D#, 2
	note A#, 2
	note D#, 2
	note A#, 2
	octave 2
	note G#, 2
	octave 3
	note D#, 2
	octave 2
	note G#, 2
	octave 3
	note D#, 2
	octave 2
	note G#, 2
	octave 3
	note D#, 2
	octave 2
	note G#, 2
	octave 3
	note D#, 2
	octave 2
	note G#, 2
	octave 3
	note D#, 2
	octave 2
	note G#, 2
	octave 3
	note D#, 2
	octave 2
	note G#, 2
	octave 3
	note D#, 2
	octave 2
	note G#, 2
	octave 3
	note D#, 2
	octave 2
	note B_, 2
	octave 3
	note F#, 2
	octave 2
	note B_, 2
	octave 3
	note F#, 2
	octave 2
	note B_, 2
	octave 3
	note F#, 2
	octave 2
	note B_, 2
	octave 3
	note F#, 2
	octave 2
	note B_, 2
	octave 3
	note F#, 2
	octave 2
	note B_, 2
	octave 3
	note F#, 2
	octave 2
	note B_, 2
	octave 3
	note F#, 2
	octave 2
	note B_, 2
	octave 3
	note F#, 2
	octave 2
	note E_, 2
	note B_, 2
	note E_, 2
	note B_, 2
	note E_, 2
	note B_, 2
	note E_, 2
	note B_, 2
	note E_, 2
	note B_, 2
	note E_, 2
	note B_, 2
	note E_, 2
	note B_, 2
	note E_, 2
	note B_, 2
	note G#, 2
	octave 3
	note E_, 2
	octave 2
	note G#, 2
	octave 3
	note E_, 2
	octave 2
	note G#, 2
	octave 3
	note E_, 2
	octave 2
	note G#, 2
	octave 3
	note E_, 2
	octave 2
	note A#, 2
	octave 3
	note F#, 2
	octave 2
	note A#, 2
	octave 3
	note F#, 2
	octave 2
	note A#, 2
	octave 3
	note F#, 2
	octave 2
	note A#, 2
	octave 3
	intensity $13
	note A_, 1
	note A#, 1
;dorian time
	note B_, 2
	note __, 1
	note B_, 1
	note __, 2
	octave 4
	note F#, 4
	note D_, 2
	note C#, 2
	note D_, 2
	note E_, 2
	note __, 1
	note E_, 1
	note __, 2
	note B_, 4
	note A_, 2
	note G#, 2
	octave 3
	note B_, 4
	note A_, 2
	note B_, 1
	note __, 1
	octave 4
	note F#, 4
	note D_, 2
	note C#, 2
	note E_, 4
	note D_, 2
	note E_, 1
	note __, 1
	note B_, 4
	note A_, 2
	note G#, 4
	octave 3
	note B_, 2
	note __, 1
	note B_, 1
	note __, 2
	octave 4
	note F#, 4
	note D_, 2
	note C#, 2
	note D_, 2
	note E_, 2
	note __, 1
	note E_, 1
	note __, 2
	note B_, 4
	note A_, 2
	note G#, 2
	octave 3
	note F#, 4
	octave 4
	note F#, 2
	octave 3
	note F#, 1
	note __, 1
	octave 4
	note A_, 4
	note F#, 2
	note C#, 2
	octave 3
	note A_, 4
	octave 4
	note A_, 2
	octave 3
	note A_, 2
	octave 4
	note A_, 2
	octave 3
	note A_, 2
	octave 4
	note A_, 2
	octave 3
	note A_, 2
	note A#, 4
	octave 4
	note A#, 2
	octave 3
	note A#, 2
	octave 4
	note A#, 2
	octave 3
	note A#, 2
	octave 4
	note A#, 2
	octave 3
	note A#, 2
	octave 4
	note A#, 2
	octave 2
	note A#, 2
	note __, 2
	note A#, 2
	note __, 2
	note A#, 2
	note __, 2
	note A#, 2
	note __, 2
;bootleg sea sky and land time
	intensity $14
	note B_, 8
	note __, 16
	note __, 16
	note __, 16
	note __, 4
	note A_, 4
	note B_, 8
	note __, 16
	note __, 8
	note A_, 12
	note A#, 4
	note A#, 16
	note B_, 8
	note __, 16
	note __, 16
	note __, 16
	note __, 4
	note A_, 4
	note B_, 8
	note __, 16
	note __, 4
	note E_, 8
	octave 3
	note C_, 4
	octave 2
	note E_, 4
	octave 3
	note C_, 4
	octave 2
	note E_, 4
	octave 3
	note C_, 4
	octave 2
	note E_, 4
	octave 3
	note C_, 4
; no more solo :-(
	callchannel Music_Donchan_Ch3_Worlds_Smallest_Optimisation
	callchannel Music_Donchan_Ch3_Worlds_Smallest_Optimisation
	note D_, 2
	note A_, 2
	note D_, 2
	note A_, 2
	note D_, 2
	note A_, 2
	note D_, 2
	octave 2
	note A_, 4
	octave 3
	note E_, 2
	octave 2
	note A_, 2
	octave 3
	note E_, 2
	octave 2
	note A_, 2
	octave 3
	note E_, 2
	octave 2
	note A_, 2
	note B_, 4
	octave 3
	note F#, 2
	octave 2
	note B_, 2
	octave 3
	note F#, 2
	octave 2
	note B_, 2
	octave 3
	note F#, 2
	octave 2
	note B_, 2
	note F#, 4
	octave 3
	note C#, 2
	octave 2
	note F#, 2
	octave 3
	note C#, 2
	octave 2
	note F#, 2
	octave 3
	note C#, 2
	octave 2
	note F#, 2
	octave 3
	note C#, 2
	octave 2
	note G_, 2
	octave 3
	note D_, 2
	octave 2
	note G_, 2
	octave 3
	note D_, 2
	octave 2
	note G_, 2
	octave 3
	note D_, 2
	octave 2
	note G_, 2
	octave 3
	note D_, 2
	octave 2
	note G_, 2
	octave 3
	note D_, 2
	octave 2
	note G_, 2
	octave 3
	note D_, 2
	octave 2
	note G_, 2
	octave 3
	note D_, 2
	octave 2
	note G_, 2
	octave 3
	note D_, 2
	octave 2
	note G#, 2
	octave 3
	note D_, 2
	octave 2
	note G#, 2
	octave 3
	note D_, 2
	octave 2
	note G#, 2
	octave 3
	note D_, 2
	octave 2
	note G#, 2
	octave 3
	note D_, 2
	note C#, 2
	note G#, 2
	note C#, 2
	note G#, 2
	note C#, 2
	note G#, 2
	note C#, 2
	note G#, 2
	loopchannel 0, Music_Donchan_Ch3_Loop
Music_Donchan_Ch3_Intro_Loop:
	octave 2
	note G#, 2
	note __, 1
	note G#, 1
	note __, 2
	octave 1
	note G#, 2
	note __, 1
	note G#, 1
	note __, 2
	note G#, 1
	note __, 1
	note G#, 1
	note __, 1
	octave 2
	note F#, 2
	note __, 1
	note G#, 1
	note __, 2
	note A_, 7
	note __, 1
	note F#, 2
	endchannel
Music_Donchan_Ch3_Worlds_Smallest_Optimisation:
	octave 2
	note F#, 2
	octave 3
	note C#, 2
	octave 2
	note F#, 2
	octave 3
	note C#, 2
	octave 2
	note F#, 2
	octave 3
	note C#, 2
	octave 2
	note F#, 2
	octave 3
	note C#, 2
	octave 2
	note A_, 2
	octave 3
	note E_, 2
	octave 2
	note A_, 2
	octave 3
	note E_, 2
	octave 2
	note A_, 2
	octave 3
	note E_, 2
	octave 2
	note A_, 2
	octave 3
	note E_, 2
	octave 2
	note B_, 2
	octave 3
	note F#, 2
	octave 2
	note B_, 2
	octave 3
	note F#, 2
	octave 2
	note B_, 2
	octave 3
	note F#, 2
	octave 2
	note B_, 2
	octave 3
	note F#, 2
	note C#, 2
	note G#, 2
	note C#, 2
	note G#, 2
	note C#, 2
	note G#, 2
	note C#, 2
	note G#, 2
	endchannel
; ============================================================================================================

Music_Donchan_Ch4:
	togglenoise 1 ; WARNING: this will sound bad.
	notetype 12
;Bar 1
	endchannel

; ============================================================================================================

