;eroge bounce
Music_Yotsuba:
	musicheader 4, 1, Music_Yotsuba_Ch1
	musicheader 1, 2, Music_Yotsuba_Ch2
	musicheader 1, 3, Music_Yotsuba_Ch3
	musicheader 1, 4, Music_Yotsuba_Ch4

Music_Yotsuba_Ch1:
	tempo 64
	dutycycle $0
	notetype 12, $40
	sound_call .sub1
	notetype 12, $50
	sound_call .sub1
	notetype 12, $60
	sound_call .sub1
	notetype 12, $70
	sound_call .sub1
	notetype 12, $80
	sound_call .sub1
	notetype 12, $70
	sound_call .sub1
	notetype 12, $60
	sound_call .sub1
	notetype 12, $50
	sound_call .sub1
	;
	notetype 12, $40
	sound_call .sub2
	notetype 12, $50
	sound_call .sub2
	notetype 12, $60
	sound_call .sub2
	notetype 12, $70
	sound_call .sub2
	notetype 12, $80
	sound_call .sub2
	notetype 12, $70
	sound_call .sub2
	notetype 12, $60
	sound_call .sub2
	notetype 12, $50
	sound_call .sub2
	;
	notetype 12, $40
	sound_call .sub3
	notetype 12, $50
	sound_call .sub3
	notetype 12, $60
	sound_call .sub3
	notetype 12, $70
	sound_call .sub3
	notetype 12, $80
	sound_call .sub3
	notetype 12, $70
	sound_call .sub3
	notetype 12, $60
	sound_call .sub3
	notetype 12, $50
	sound_call .sub3
	;
	notetype 12, $40
	sound_call .sub4
	notetype 12, $50
	sound_call .sub4
	notetype 12, $60
	sound_call .sub4
	notetype 12, $70
	sound_call .sub4
	notetype 12, $80
	sound_call .sub5
	notetype 12, $70
	sound_call .sub5
	notetype 12, $60
	sound_call .sub5
	notetype 12, $50
	sound_call .sub5
.mainloop:
	;FRAME 02
	notetype 12, $40
	sound_call .sub1
	notetype 12, $50
	sound_call .sub1
	notetype 12, $60
	sound_call .sub1
	notetype 12, $70
	sound_call .sub1
	notetype 12, $80
	sound_call .sub1
	notetype 12, $70
	sound_call .sub1
	notetype 12, $60
	sound_call .sub1
	notetype 12, $50
	sound_call .sub1
	;
	notetype 12, $40
	sound_call .sub6
	notetype 12, $50
	sound_call .sub6
	notetype 12, $60
	sound_call .sub6
	notetype 12, $70
	sound_call .sub6
	notetype 12, $80
	sound_call .sub6
	notetype 12, $70
	sound_call .sub6
	notetype 12, $60
	sound_call .sub6
	notetype 12, $50
	sound_call .sub6
	;FRAME 03
	notetype 12, $40
	sound_call .sub1
	notetype 12, $50
	sound_call .sub1
	notetype 12, $60
	sound_call .sub1
	notetype 12, $70
	sound_call .sub1
	notetype 12, $80
	sound_call .sub1
	notetype 12, $70
	sound_call .sub1
	notetype 12, $60
	sound_call .sub1
	notetype 12, $50
	sound_call .sub1
	;
	notetype 12, $40
	sound_call .sub7
	notetype 12, $50
	sound_call .sub7
	notetype 12, $60
	sound_call .sub7
	notetype 12, $70
	sound_call .sub7
	notetype 12, $80
	sound_call .sub8
	notetype 12, $70
	sound_call .sub8
	notetype 12, $60
	sound_call .sub8
	notetype 12, $50
	sound_call .sub8
	;FRAME 04
	notetype 12, $40
	sound_call .sub1
	notetype 12, $50
	sound_call .sub1
	notetype 12, $60
	sound_call .sub1
	notetype 12, $70
	sound_call .sub1
	notetype 12, $80
	sound_call .sub1
	notetype 12, $70
	sound_call .sub1
	notetype 12, $60
	sound_call .sub1
	notetype 12, $50
	sound_call .sub1
	;
	notetype 12, $40
	sound_call .sub6
	notetype 12, $50
	sound_call .sub6
	notetype 12, $60
	sound_call .sub6
	notetype 12, $70
	sound_call .sub6
	notetype 12, $80
	sound_call .sub6
	notetype 12, $70
	sound_call .sub6
	notetype 12, $60
	sound_call .sub6
	notetype 12, $50
	sound_call .sub6
	;FRAME 05
	notetype 12, $40
	sound_call .sub9
	notetype 12, $50
	sound_call .sub9
	notetype 12, $60
	sound_call .sub9
	notetype 12, $70
	sound_call .sub9
	notetype 12, $80
	sound_call .sub9
	notetype 12, $70
	sound_call .sub9
	notetype 12, $60
	sound_call .sub9
	notetype 12, $50
	sound_call .sub9
	;
	notetype 12, $40
	sound_call .sub10
	notetype 12, $50
	sound_call .sub10
	notetype 12, $60
	sound_call .sub10
	notetype 12, $70
	sound_call .sub10
	notetype 12, $80
	sound_call .sub11
	notetype 12, $70
	sound_call .sub11
	notetype 12, $60
	sound_call .sub11
	notetype 12, $50
	sound_call .sub11
	;FRAME 06
	notetype 12, $40
	sound_call .sub1
	notetype 12, $50
	sound_call .sub1
	notetype 12, $60
	sound_call .sub1
	notetype 12, $70
	sound_call .sub1
	notetype 12, $80
	sound_call .sub1
	notetype 12, $70
	sound_call .sub1
	notetype 12, $60
	sound_call .sub1
	notetype 12, $50
	sound_call .sub1
	;
	notetype 12, $40
	sound_call .sub6
	notetype 12, $50
	sound_call .sub6
	notetype 12, $60
	sound_call .sub6
	notetype 12, $70
	sound_call .sub6
	notetype 12, $80
	sound_call .sub6
	notetype 12, $70
	sound_call .sub6
	notetype 12, $60
	sound_call .sub6
	notetype 12, $50
	sound_call .sub6
	;FRAME 07
	notetype 12, $40
	sound_call .sub1
	notetype 12, $50
	sound_call .sub1
	notetype 12, $60
	sound_call .sub1
	notetype 12, $70
	sound_call .sub1
	notetype 12, $80
	sound_call .sub1
	notetype 12, $70
	sound_call .sub1
	notetype 12, $60
	sound_call .sub1
	notetype 12, $50
	sound_call .sub1
	;
	notetype 12, $40
	sound_call .sub7
	notetype 12, $50
	sound_call .sub7
	notetype 12, $60
	sound_call .sub7
	notetype 12, $70
	sound_call .sub7
	notetype 12, $80
	sound_call .sub8
	notetype 12, $70
	sound_call .sub8
	notetype 12, $60
	sound_call .sub8
	notetype 12, $50
	sound_call .sub8
	;FRAME 08
	notetype 12, $40
	sound_call .sub1
	notetype 12, $50
	sound_call .sub1
	notetype 12, $60
	sound_call .sub1
	notetype 12, $70
	sound_call .sub1
	notetype 12, $80
	sound_call .sub1
	notetype 12, $70
	sound_call .sub1
	notetype 12, $60
	sound_call .sub1
	notetype 12, $50
	sound_call .sub1
	;
	notetype 12, $40
	sound_call .sub6
	notetype 12, $50
	sound_call .sub6
	notetype 12, $60
	sound_call .sub6
	notetype 12, $70
	sound_call .sub6
	notetype 12, $80
	sound_call .sub6
	notetype 12, $70
	sound_call .sub6
	notetype 12, $60
	sound_call .sub6
	notetype 12, $50
	sound_call .sub6
	;FRAME 09
	notetype 12, $40
	sound_call .sub12
	notetype 12, $50
	sound_call .sub12
	notetype 12, $60
	sound_call .sub12
	notetype 12, $70
	sound_call .sub12
	notetype 12, $80
	sound_call .sub12
	notetype 12, $70
	sound_call .sub12
	notetype 12, $60
	sound_call .sub12
	notetype 12, $50
	sound_call .sub12
	;
	notetype 12, $40
	sound_call .sub13
	notetype 12, $50
	sound_call .sub13
	notetype 12, $60
	sound_call .sub13
	notetype 12, $70
	sound_call .sub13
	notetype 12, $80
	sound_call .sub13
	notetype 12, $70
	sound_call .sub13
	notetype 12, $60
	sound_call .sub13
	notetype 12, $50
	sound_call .sub13
	;frame 0A
	notetype 4, $50
	sound_call .sub14
	sound_call .sub14
	sound_call .sub14
	sound_call .sub14
	sound_call .sub14
	sound_call .sub14
	sound_call .sub15
	sound_call .sub15
	sound_call .sub16
	sound_call .sub16
	sound_call .sub16
	sound_call .sub16
	sound_call .sub17
	sound_call .sub17
	sound_call .sub17
	sound_call .sub17
	;frame 0B
	sound_call .sub14
	sound_call .sub14
	sound_call .sub14
	sound_call .sub14
	sound_call .sub14
	sound_call .sub14
	sound_call .sub15
	sound_call .sub15
	sound_call .sub16
	sound_call .sub16
	sound_call .sub16
	sound_call .sub16
	sound_call .sub17
	sound_call .sub17
	;thank god for laziness from hereon
	notetype 12, $60
	note D_, 8
	;frame 0C
	note E_, 16
	note E_, 2
	octave 2
	note G_, 2
	note B_, 2
	octave 3
	note C_, 2
	note D_, 2
	note F#, 2
	note G_, 2
	note B_, 2
	note G_, 14
	notetype 4, $60
	note G#, 1
	note A_, 1
	note A#, 1
	note B_, 1
	octave 4
	note C_, 1
	note C#, 1
	notetype 12, $60
	note D_, 12
	note C_, 2
	octave 3
	note B_, 2
	;frame 0D
	octave 4
	note C_, 12
	octave 3
	note E_, 2
	note G_, 2
	note A_, 4
	octave 4
	note C_, 4
	note E_, 3
	note A_, 1
	note B_, 4
	note G_, 2
	note B_, 2
	note G_, 12
	note F#, 12
	duty_cycle_pattern 0, 0, 1, 1
	notetype 12, $87
	note E_, 2
	note F#, 2
	;frame 0E
	note G_, 12
	note E_, 2
	note E_, 2
	note F#, 6
	note G_, 6
	note D_, 4
	note C_, 6
	octave 3
	note B_, 6
	octave 4
	note F#, 4
	note D_, 16
	;frame 0F
	note C_, 12
	octave 3
	note A_, 2
	note B_, 2
	octave 4
	note C_, 6
	note D_, 6
	note C_, 4
	note F#, 8
	note G_, 6
	note F#, 1
	note G_, 1
	note E_, 4
	duty_cycle_pattern 2, 2, 2, 2
	notetype 12, $64
	octave 2
	note A_, 1
	octave 3
	note E_, 1
	octave 4
	note C#, 1
	note A_, 1
	octave 5
	note D#, 1
	octave 4
	note F#, 1
	octave 3
	note B_, 1
	note D#, 1
	octave 4
	duty_cycle_pattern 0, 0, 1, 1
	notetype 12, $87
	note E_, 2
	note F#, 2
	;frame 10
	note G_, 12
	note E_, 4
	note F#, 6
	note G_, 6
	note B_, 4
	octave 5
	note D_, 8
	octave 4
	note G_, 7
	notetype 4, $87
	note G#, 1
	note A_, 1
	note A#, 1
	notetype 12, $87
	note B_, 12
	note G_, 2
	note B_, 2
	octave 5
	note C_, 12
	octave 4
	note F#, 1
	note G_, 3
	note F#, 6
	note E_, 6
	note D_, 4
	;AAAAAA
	duty_cycle_pattern 1, 1, 1, 1
	notetype 4, $84
	octave 4
	note C_, 1
	notetype 4, $74
	octave 3
	note C_, 2
	notetype 4, $44
	octave 4
	note C_, 3
	;
	notetype 4, $84
	octave 4
	note D_, 1
	notetype 4, $74
	octave 3
	note D_, 2
	notetype 4, $44
	octave 4
	note C_, 3
	;
	notetype 4, $84
	octave 4
	note E_, 1
	notetype 4, $74
	octave 3
	note E_, 2
	notetype 4, $44
	octave 4
	note D_, 3
	;
	notetype 4, $84
	octave 4
	note A_, 1
	notetype 4, $74
	octave 3
	note A_, 2
	notetype 4, $44
	octave 4
	note E_, 3
	;
	notetype 4, $84
	octave 4
	note E_, 1
	notetype 4, $74
	octave 3
	note E_, 2
	notetype 4, $44
	octave 4
	note A_, 3
	;
	notetype 4, $84
	octave 4
	note A_, 1
	notetype 4, $74
	octave 3
	note A_, 2
	notetype 4, $44
	octave 4
	note E_, 3
	;
	notetype 4, $84
	octave 4
	note B_, 1
	notetype 4, $74
	octave 3
	note B_, 2
	notetype 4, $44
	octave 4
	note A_, 3
	;
	notetype 4, $84
	octave 5
	note D_, 1
	notetype 4, $74
	octave 4
	note D_, 2
	notetype 4, $44
	note B_, 3
	;i take some mercy here but NOT ENOUGH
	notetype 4, $84
	octave 4
	note A_, 1
	notetype 4, $74
	octave 3
	note A_, 3
	notetype 4, $84
	octave 5
	note D_, 1
	notetype 4, $74
	octave 4
	note D_, 3
	notetype 4, $84
	octave 4
	note A_, 1
	notetype 4, $74
	octave 3
	note A_, 3
	octave 5
	note D_, 1
	notetype 4, $64
	octave 4
	note D_, 3
	notetype 4, $74
	octave 4
	note A_, 1
	notetype 4, $64
	octave 3
	note A_, 3
	notetype 4, $74
	octave 5
	note D_, 1
	notetype 4, $64
	octave 4
	note D_, 3
	;
	octave 5
	note A_, 1
	notetype 4, $54
	octave 4
	note A_, 3
	notetype 4, $64
	octave 5
	note E_, 1
	notetype 4, $54
	octave 4
	note E_, 3
	notetype 4, $64
	octave 5
	note A_, 1
	notetype 4, $54
	octave 4
	note A_, 3
	octave 5
	note E_, 1
	notetype 4, $44
	octave 4
	note E_, 3
	notetype 4, $54
	octave 5
	note A_, 1
	notetype 4, $44
	octave 4
	note A_, 3
	notetype 4, $54
	octave 5
	note E_, 1
	notetype 4, $44
	octave 4
	note E_, 3
	duty_cycle_pattern 0, 0, 0, 0
	;NOW I CAN JUST COPY+PASTE FRAMES 02 AND 03 WOOOOOO
	;FRAME 02
	notetype 12, $40
	sound_call .sub1
	notetype 12, $50
	sound_call .sub1
	notetype 12, $60
	sound_call .sub1
	notetype 12, $70
	sound_call .sub1
	notetype 12, $80
	sound_call .sub1
	notetype 12, $70
	sound_call .sub1
	notetype 12, $60
	sound_call .sub1
	notetype 12, $50
	sound_call .sub1
	;
	notetype 12, $40
	sound_call .sub6
	notetype 12, $50
	sound_call .sub6
	notetype 12, $60
	sound_call .sub6
	notetype 12, $70
	sound_call .sub6
	notetype 12, $80
	sound_call .sub6
	notetype 12, $70
	sound_call .sub6
	notetype 12, $60
	sound_call .sub6
	notetype 12, $50
	sound_call .sub6
	;FRAME 03
	notetype 12, $40
	sound_call .sub1
	notetype 12, $50
	sound_call .sub1
	notetype 12, $60
	sound_call .sub1
	notetype 12, $70
	sound_call .sub1
	notetype 12, $80
	sound_call .sub1
	notetype 12, $70
	sound_call .sub1
	notetype 12, $60
	sound_call .sub1
	notetype 12, $50
	sound_call .sub1
	;
	notetype 12, $40
	sound_call .sub7
	notetype 12, $50
	sound_call .sub7
	notetype 12, $60
	sound_call .sub7
	notetype 12, $70
	sound_call .sub7
	notetype 12, $80
	sound_call .sub8
	notetype 12, $70
	sound_call .sub8
	notetype 12, $60
	sound_call .sub8
	notetype 12, $50
	sound_call .sub8
	sound_loop 0, .mainloop

.sub1: ; a c e g
	octave 2
	note A_, 1
	octave 3
	note C_, 1
	note E_, 1
	note G_, 1
	sound_ret
	
.sub2: ; d f a a#
	octave 3
	note D_, 1
	note F_, 1
	note A_, 1
	note A#, 1
	sound_ret
	
.sub3: ; e f# a b
	octave 3
	note E_, 1
	note F#, 1
	note A_, 1
	note B_, 1
	sound_ret
	
.sub4: ; f# a c f#
	octave 3
	note F#, 1
	note A_, 1
	octave 4
	note C_, 1
	note F#, 1
	sound_ret
	
.sub5: ; e g# b e
	octave 3
	note E_, 1
	note G#, 1
	note B_, 1
	octave 4
	note E_, 1
	sound_ret
	
.sub6: ; a# d f a
	octave 2
	note A#, 1
	octave 3
	note D_, 1
	note F_, 1
	note A_, 1
	sound_ret
	
.sub7: ; b d f# a
	octave 2
	note B_, 1
	octave 3
	note D_, 1
	note F#, 1
	note A_, 1
	sound_ret
	
.sub8: ; c e g# c
	octave 3
	note C_, 1
	note E_, 1
	note G#, 1
	octave 4
	note C_, 1
	sound_ret
	
.sub9: ; b e f# a
	octave 2
	note B_, 1
	octave 3
	note E_, 1
	note F#, 1
	note A_, 1
	sound_ret
	
.sub10: ; e g# b e
	octave 3
	note E_, 1
	note G#, 1
	note B_, 1
	octave 4
	note E_, 1
	sound_ret
	
.sub11: ; g# b e g#
	octave 3
	note G#, 1
	note B_, 1
	octave 4
	note E_, 1
	note G#, 1
	sound_ret
	
.sub12: ; d a c e
	octave 2
	note D_, 1
	note A_, 1
	octave 3
	note C_, 1
	note E_, 1
	sound_ret
	
.sub13: ; g# b d g#
	octave 2
	note G#, 1
	note B_, 1
	octave 3
	note D_, 1
	note G#, 1
	sound_ret
	
;;;actual arps time	

.sub14: ; b e g e
	octave 2
	note B_, 1
	octave 3
	note E_, 1
	note G_, 1
	note E_, 1
	octave 2
	note B_, 1
	octave 3
	note E_, 1
	note G_, 1
	note E_, 1
	octave 2
	note B_, 1
	octave 3
	note E_, 1
	note G_, 1
	note E_, 1
	sound_ret
	
.sub15: ; d e g d
	octave 3
	note D_, 1
	note E_, 1
	note G_, 1
	octave 4
	note D_, 1
	octave 3
	note D_, 1
	note E_, 1
	note G_, 1
	octave 4
	note D_, 1
	octave 3
	note D_, 1
	note E_, 1
	note G_, 1
	octave 4
	note D_, 1
	sound_ret
	
.sub16: ; g d e g
	octave 2
	note G_, 1
	octave 3
	note D_, 1
	note E_, 1
	note G_, 1
	octave 2
	note G_, 1
	octave 3
	note D_, 1
	note E_, 1
	note G_, 1
	octave 2
	note G_, 1
	octave 3
	note D_, 1
	note E_, 1
	note G_, 1
	sound_ret
	
.sub17: ; e g d e
	octave 3
	note E_, 1
	note G_, 1
	octave 4
	note D_, 1
	note E_, 1
	octave 3
	note E_, 1
	note G_, 1
	octave 4
	note D_, 1
	note E_, 1
	octave 3
	note E_, 1
	note G_, 1
	octave 4
	note D_, 1
	note E_, 1
	sound_ret
	

Music_Yotsuba_Ch2:
	dutycycle $2
	notetype 4, $80
	sound_call .sub1
	notetype 4, $40
	sound_call .sub1
	notetype 4, $80
	sound_call .sub1
	notetype 4, $40
	sound_call .sub1
	notetype 4, $80
	sound_call .sub1
	sound_call .sub1
	notetype 4, $40
	sound_call .sub1
	sound_call .sub1
	notetype 4, $80
	sound_call .sub1
	notetype 4, $40
	sound_call .sub1
	notetype 4, $80
	sound_call .sub1
	sound_call .sub1
	notetype 4, $40
	sound_call .sub1
	sound_call .sub1
	notetype 4, $80
	sound_call .sub1
	notetype 4, $40
	sound_call .sub1
	;
	notetype 4, $80
	sound_call .sub1
	notetype 4, $40
	sound_call .sub1
	notetype 4, $80
	sound_call .sub1
	notetype 4, $40
	sound_call .sub1
	notetype 4, $80
	sound_call .sub1
	sound_call .sub1
	notetype 4, $40
	sound_call .sub1
	sound_call .sub1
	notetype 4, $80
	sound_call .sub1
	notetype 4, $40
	sound_call .sub1
	notetype 4, $80
	sound_call .sub1
	sound_call .sub1
	notetype 4, $40
	sound_call .sub1
	sound_call .sub1
	notetype 4, $80
	sound_call .sub1
	notetype 4, $40
	sound_call .sub1
	;
	transpose 0, 2
	notetype 4, $80
	sound_call .sub1
	notetype 4, $40
	sound_call .sub1
	notetype 4, $80
	sound_call .sub1
	notetype 4, $40
	sound_call .sub1
	notetype 4, $80
	sound_call .sub1
	sound_call .sub1
	notetype 4, $40
	sound_call .sub1
	sound_call .sub1
	notetype 4, $80
	sound_call .sub1
	notetype 4, $40
	sound_call .sub1
	notetype 4, $80
	sound_call .sub1
	sound_call .sub1
	notetype 4, $40
	sound_call .sub1
	sound_call .sub1
	notetype 4, $80
	sound_call .sub1
	notetype 4, $40
	sound_call .sub1
	;
	notetype 4, $80
	sound_call .sub1
	notetype 4, $40
	sound_call .sub1
	notetype 4, $80
	sound_call .sub1
	notetype 4, $40
	sound_call .sub1
	notetype 4, $80
	sound_call .sub1
	sound_call .sub1
	notetype 4, $40
	sound_call .sub1
	sound_call .sub1
	notetype 4, $80
	sound_call .sub1
	notetype 4, $40
	sound_call .sub1
	notetype 4, $80
	sound_call .sub1
	sound_call .sub1
	notetype 4, $40
	sound_call .sub1
	sound_call .sub1
	notetype 4, $80
	sound_call .sub1
	notetype 4, $40
	sound_call .sub1
	;
	transpose 0, 4
	notetype 4, $80
	sound_call .sub2
	notetype 4, $40
	sound_call .sub2
	notetype 4, $80
	sound_call .sub2
	notetype 4, $40
	sound_call .sub2
	notetype 4, $80
	sound_call .sub2
	sound_call .sub2
	notetype 4, $40
	sound_call .sub2
	sound_call .sub2
	notetype 4, $80
	sound_call .sub2
	notetype 4, $40
	sound_call .sub2
	notetype 4, $80
	sound_call .sub2
	sound_call .sub2
	notetype 4, $40
	sound_call .sub2
	sound_call .sub2
	notetype 4, $80
	sound_call .sub2
	notetype 4, $40
	sound_call .sub2
	;
	notetype 4, $80
	sound_call .sub2
	notetype 4, $40
	sound_call .sub2
	notetype 4, $80
	sound_call .sub2
	notetype 4, $40
	sound_call .sub2
	notetype 4, $80
	sound_call .sub2
	sound_call .sub2
	notetype 4, $40
	sound_call .sub2
	sound_call .sub2
	notetype 4, $80
	sound_call .sub2
	notetype 4, $40
	sound_call .sub2
	notetype 4, $80
	sound_call .sub2
	sound_call .sub2
	notetype 4, $40
	sound_call .sub2
	sound_call .sub2
	notetype 4, $80
	sound_call .sub2
	notetype 4, $40
	sound_call .sub2
	;
	transpose 0, 6
	notetype 4, $80
	sound_call .sub3
	notetype 4, $40
	sound_call .sub3
	notetype 4, $80
	sound_call .sub3
	notetype 4, $40
	sound_call .sub3
	notetype 4, $80
	sound_call .sub3
	sound_call .sub3
	notetype 4, $40
	sound_call .sub3
	sound_call .sub3
	notetype 4, $80
	sound_call .sub3
	notetype 4, $40
	sound_call .sub3
	notetype 4, $80
	sound_call .sub3
	sound_call .sub3
	notetype 4, $40
	sound_call .sub3
	sound_call .sub3
	notetype 4, $80
	sound_call .sub3
	notetype 4, $40
	sound_call .sub3
	;
	transpose 0, 8
	notetype 4, $80
	sound_call .sub4
	notetype 4, $40
	sound_call .sub4
	notetype 4, $80
	sound_call .sub4
	notetype 4, $40
	sound_call .sub4
	notetype 4, $80
	sound_call .sub4
	sound_call .sub4
	notetype 4, $40
	sound_call .sub4
	sound_call .sub4
	notetype 4, $80
	sound_call .sub4
	notetype 4, $40
	sound_call .sub4
	notetype 4, $80
	sound_call .sub4
	sound_call .sub4
.mainloop:
	dutycycle $0
	vibrato 12, 2, 6
	transpose 2, 7
	sound_call .sub5
	note C_, 3
	transpose 2, 9
	sound_call .sub5
	note C_, 3
	; FRAME 02
	sound_call .sub5
	transpose 2, 11
	sound_call .sub5
	notetype 12, $B7
	note C_, 10
	sound_call .sub6
	transpose 3, 11
	sound_call .sub5
	notetype 12, $B7
	note C_, 5
	transpose 2, 4
	sound_call .sub5
	notetype 12, $B7
	note C_, 5
	transpose 2, 11
	sound_call .sub5
	notetype 12, $B7
	note C_, 3
	transpose 2, 9
	sound_call .sub5
	note C_, 1
	transpose 2, 11
	sound_call .sub5
	note C_, 1
	transpose 2, 9
	sound_call .sub5
	note C_, 1
	notetype 12, $B7
	note C_, 16
	notetype 12, $47
	note C_, 8
	transpose 2, 7
	sound_call .sub5
	note C_, 3
	transpose 2, 9
	sound_call .sub5
	note C_, 3
	; FRAME 03
	sound_call .sub5
	transpose 2, 11
	sound_call .sub5
	notetype 12, $B7
	note C_, 10
	sound_call .sub6
	transpose 2, 4
	sound_call .sub5
	notetype 12, $B7
	note C_, 5
	transpose 2, 9
	sound_call .sub5
	notetype 12, $B7
	note C_, 5
	transpose 1, 0
	sound_call .sub5
	transpose 1, 2
	sound_call .sub5
	notetype 12, $B7
	note C_, 2
	transpose 2, 9
	sound_call .sub5
	note C_, 1
	transpose 2, 11
	sound_call .sub5
	note C_, 1
	transpose 2, 9
	sound_call .sub5
	note C_, 1
	notetype 12, $B7
	note C_, 16
	notetype 12, $47
	note C_, 8
	transpose 2, 7
	sound_call .sub5
	note C_, 3
	transpose 2, 9
	sound_call .sub5
	note C_, 3
	; FRAME 04
	sound_call .sub5
	transpose 2, 11
	sound_call .sub5
	notetype 12, $B7
	note C_, 10
	sound_call .sub6
	transpose 2, 4
	sound_call .sub5
	notetype 12, $B7
	note C_, 5
	transpose 2, 9
	sound_call .sub5
	notetype 12, $B7
	note C_, 5
	transpose 2, 11
	sound_call .sub5
	notetype 12, $B7
	note C_, 3
	transpose 1, 2
	sound_call .sub5
	notetype 12, $B7
	note C_, 5
	transpose 1, 4
	sound_call .sub5
	transpose 1, 2
	sound_call .sub5
	transpose 2, 9
	sound_call .sub5
	notetype 12, $B7
	note C_, 7
	transpose 2, 11
	sound_call .sub5
	notetype 12, $B7
	note C_, 6
	transpose 0, 0
	notetype 4, $90
	octave 4
	note C#, 1
	note D_, 1
	note D#, 1
	transpose 1, 4
	sound_call .sub5
	notetype 12, $B7
	note C_, 7
	; FRAME 05
	transpose 1, 2
	sound_call .sub5
	note C_, 3
	transpose 1, 4
	sound_call .sub5
	note C_, 3
	transpose 1, 2
	sound_call .sub5
	notetype 12, $B7
	note C_, 16
	notetype 12, $47
	note C_, 11
	dutycycle $2
	transpose 0, 6
	notetype 4, $60
	sound_call .sub3
	notetype 4, $30
	sound_call .sub3
	notetype 4, $60
	sound_call .sub3
	notetype 4, $30
	sound_call .sub3
	notetype 4, $60
	sound_call .sub3
	sound_call .sub3
	notetype 4, $30
	sound_call .sub3
	sound_call .sub3
	notetype 4, $60
	sound_call .sub3
	notetype 4, $30
	sound_call .sub3
	notetype 4, $60
	sound_call .sub3
	sound_call .sub3
	notetype 4, $30
	sound_call .sub3
	sound_call .sub3
	notetype 4, $60
	sound_call .sub3
	notetype 4, $30
	sound_call .sub3
	transpose 0, 8
	notetype 4, $60
	sound_call .sub4
	notetype 4, $30
	sound_call .sub4
	notetype 4, $60
	sound_call .sub4
	notetype 4, $30
	sound_call .sub4
	notetype 4, $60
	sound_call .sub4
	sound_call .sub4
	notetype 4, $30
	sound_call .sub4
	sound_call .sub4
	notetype 4, $60
	sound_call .sub4
	notetype 4, $30
	sound_call .sub4
	notetype 4, $60
	sound_call .sub4
	sound_call .sub4
	notetype 4, $30
	sound_call .sub4
	sound_call .sub4
	notetype 4, $60
	sound_call .sub4
	notetype 4, $30
	sound_call .sub4
	; FRAME 06
	dutycycle $0
	transpose 2, 9
	sound_call .sub5
	transpose 2, 11
	sound_call .sub5
	notetype 12, $B7
	note C_, 10
	sound_call .sub6
	transpose 3, 11
	sound_call .sub5
	notetype 12, $B7
	note C_, 5
	transpose 2, 4
	sound_call .sub5
	notetype 12, $B7
	note C_, 5
	transpose 2, 11
	sound_call .sub5
	notetype 12, $B7
	note C_, 3
	transpose 2, 9
	sound_call .sub5
	note C_, 1
	transpose 2, 11
	sound_call .sub5
	note C_, 1
	transpose 2, 9
	sound_call .sub5
	note C_, 1
	notetype 12, $B7
	note C_, 16
	notetype 12, $47
	note C_, 8
	transpose 2, 7
	sound_call .sub5
	note C_, 3
	transpose 2, 9
	sound_call .sub5
	note C_, 3
	; FRAME 07
	sound_call .sub5
	transpose 2, 11
	sound_call .sub5
	notetype 12, $B7
	note C_, 10
	sound_call .sub6
	transpose 2, 4
	sound_call .sub5
	notetype 12, $B7
	note C_, 5
	transpose 2, 9
	sound_call .sub5
	notetype 12, $B7
	note C_, 5
	transpose 1, 0
	sound_call .sub5
	transpose 1, 2
	sound_call .sub5
	notetype 12, $B7
	note C_, 2
	transpose 2, 9
	sound_call .sub5
	note C_, 1
	transpose 2, 11
	sound_call .sub5
	note C_, 1
	transpose 2, 9
	sound_call .sub5
	note C_, 1
	notetype 12, $B7
	note C_, 16
	notetype 12, $47
	note C_, 8
	transpose 2, 7
	sound_call .sub5
	note C_, 3
	transpose 2, 9
	sound_call .sub5
	note C_, 3
	;FRAME 08
	sound_call .sub5
	transpose 2, 11
	sound_call .sub5
	notetype 12, $B7
	note C_, 10
	sound_call .sub6
	transpose 2, 9
	sound_call .sub5
	transpose 2, 11
	sound_call .sub5
	notetype 12, $B7
	note C_, 4
	transpose 1, 2
	sound_call .sub5
	notetype 12, $B7
	note C_, 5
	transpose 1, 4
	sound_call .sub5
	notetype 12, $B7
	note C_, 3
	transpose 1, 7
	sound_call .sub5
	notetype 12, $B7
	note C_, 5
	transpose 1, 9
	sound_call .sub5
	transpose 1, 7
	sound_call .sub5
	transpose 1, 2
	sound_call .sub5
	notetype 12, $B7
	note C_, 7
	transpose 1, 4
	sound_call .sub5
	notetype 12, $B7
	note C_, 5
	notetype 4, $90
	transpose 0, 0
	note F_, 1
	note F#, 1
	note G_, 1
	note G#, 1
	note A_, 1
	note A#, 1
	transpose 1, 11
	sound_call .sub5
	notetype 12, $B7
	note C_, 7
	;FRAME 09
	transpose 1, 9
	sound_call .sub5
	note C_, 3
	transpose 1, 11
	sound_call .sub5
	note C_, 3
	transpose 1, 9
	sound_call .sub5
	notetype 12, $B7
	note C_, 16
	notetype 12, $47
	note C_, 7
	transpose 1, 9
	sound_call .sub5
	note C_, 3
	transpose 1, 10
	sound_call .sub5
	note C_, 3
	transpose 1, 11
	sound_call .sub5
	note C_, 9
	sound_call .sub6
	dutycycle $2
	notetype 12, $C7
	note __, 8
	transpose 2, 7
	sound_call .sub7
	note C_, 7
	transpose 2, 9
	sound_call .sub7
	note C_, 7
	;FRAME 0A
	transpose 2, 11
	sound_call .sub7
	note C_, 16
	notetype 12, $57
	note C_, 1
	transpose 2, 4
	sound_call .sub7
	note C_, 1
	transpose 2, 7
	sound_call .sub7
	note C_, 1
	transpose 2, 9
	sound_call .sub7
	note C_, 1
	transpose 2, 11
	sound_call .sub7
	note C_, 1
	transpose 1, 2
	sound_call .sub7
	note C_, 1
	transpose 1, 4
	sound_call .sub7
	note C_, 1
	transpose 1, 7
	sound_call .sub7
	note C_, 1
	transpose 1, 4
	sound_call .sub7
	note C_, 15
	transpose 1, 2
	sound_call .sub7
	note C_, 11
	transpose 2, 11
	sound_call .sub7
	note C_, 1
	transpose 1, 2
	sound_call .sub7
	note C_, 1
	;FRAME 0B
	transpose 1, 4
	sound_call .sub7
	note C_, 16
	notetype 12, $47
	note C_, 1
	transpose 1, 9
	sound_call .sub7
	transpose 1, 11
	sound_call .sub7
	transpose 1, 9
	sound_call .sub7
	note C_, 1
	transpose 1, 7
	sound_call .sub7
	note C_, 1
	transpose 1, 6
	sound_call .sub7
	note C_, 1
	transpose 1, 2
	sound_call .sub7
	note C_, 1
	transpose 2, 11
	sound_call .sub7
	note C_, 1
	transpose 1, 7
	sound_call .sub7
	note C_, 1
	transpose 1, 6
	sound_call .sub7
	note C_, 11
	transpose 1, 6
	sound_call .sub7
	note C_, 1
	transpose 1, 7
	sound_call .sub7
	note C_, 1
	transpose 1, 4
	sound_call .sub7
	note C_, 7
	transpose 2, 9
	sound_call .sub7
	note C_, 7
	;FRAME 0C
	transpose 2, 11
	sound_call .sub7
	note C_, 16
	notetype 12, $47
	note C_, 1
	transpose 2, 4
	sound_call .sub7
	note C_, 1
	transpose 2, 7
	sound_call .sub7
	note C_, 1
	transpose 2, 9
	sound_call .sub7
	note C_, 1
	transpose 2, 11
	sound_call .sub7
	note C_, 1
	transpose 1, 2
	sound_call .sub7
	note C_, 1
	transpose 1, 4
	sound_call .sub7
	note C_, 1
	transpose 1, 7
	sound_call .sub7
	note C_, 1
	transpose 1, 4
	sound_call .sub7
	note C_, 13
	transpose 1, 6
	sound_call .sub7
	transpose 1, 9
	sound_call .sub7
	transpose 1, 11
	sound_call .sub7
	note C_, 11
	transpose 1, 9
	sound_call .sub7
	note C_, 1
	transpose 1, 7
	sound_call .sub7
	note C_, 1
	;FRAME 0D
	transpose 1, 9
	sound_call .sub7
	note C_, 11
	transpose 2, 9
	sound_call .sub7
	note C_, 1
	transpose 2, 11
	sound_call .sub7
	note C_, 1
	transpose 1, 0
	sound_call .sub7
	note C_, 3
	transpose 1, 4
	sound_call .sub7
	note C_, 3
	transpose 1, 7
	sound_call .sub7
	note C_, 2
	transpose 0, 0
	sound_call .sub7
	transpose 0, 2
	sound_call .sub7
	note C_, 3
	transpose 1, 11
	sound_call .sub7
	note C_, 1
	transpose 0, 2
	sound_call .sub7
	note C_, 1
	transpose 1, 11
	sound_call .sub7
	note C_, 16
	notetype 12, $47
	note C_, 7
	;the madness is over [for a bit]
	dutycycle $1
	notetype 12, $B7
	transpose 0, 0
	octave 3
	note B_, 2
	octave 4
	note D_, 2
	;FRAME 0E
	note D_, 1
	note E_, 11
	octave 3
	note B_, 2
	note B_, 2
	octave 4
	note D_, 6
	note E_, 6
	octave 3
	note B_, 4
	note A_, 6
	note G_, 6
	octave 4
	note D_, 4
	octave 3
	note B_, 16
	;FRAME 0F
	note G_, 1
	note G#, 1
	note A_, 10
	note E_, 2
	note G_, 2
	note A_, 6
	note B_, 6
	note A_, 4
	octave 4
	note D_, 6
	note C_, 1
	note D_, 1
	note E_, 6
	note D_, 1
	note E_, 1
	octave 3
	note B_, 12
	note B_, 2
	octave 4
	note D_, 2
	;FRAME 10
	note E_, 12
	octave 3
	note B_, 4
	octave 4
	note D_, 6
	note E_, 6
	note G_, 4
	note B_, 8
	note E_, 6
	notetype 4, $90
	note F_, 1
	note G_, 1
	note G#, 1
	note A_, 1
	note B_, 1
	octave 5
	note C_, 1
	notetype 12, $B7
	note D_, 12
	octave 4
	note B_, 2
	octave 5
	note D_, 2
	;FRAME 11
	note E_, 12
	octave 4
	note A_, 1
	note B_, 3
	note A_, 6
	note G_, 6
	note F#, 4
	note E_, 2
	note G_, 2
	note E_, 16
	notetype 12, $57
	note E_, 12
	;FRAME 12 [aka: the part where we make up for not killing the gameboy]
	dutycycle $1
	notetype 4, $93
	octave 4
	note G_, 1
	notetype 4, $83
	octave 3
	note G_, 2
	notetype 4, $53
	octave 4
	note G_, 3
	sound_call .sub8
	;
	notetype 4, $93
	octave 5
	note A_, 1
	notetype 4, $83
	octave 4
	note A_, 2
	notetype 4, $53
	octave 5
	note E_, 3
	;
	notetype 4, $93
	octave 4
	note A_, 1
	notetype 4, $83
	octave 3
	note A_, 2
	notetype 4, $53
	octave 5
	note A_, 3
	;
	notetype 4, $93
	octave 5
	note D_, 1
	notetype 4, $83
	octave 4
	note D_, 2
	notetype 4, $53
	note A_, 3
	;
	notetype 4, $93
	octave 5
	note E_, 1
	notetype 4, $83
	octave 4
	note E_, 2
	notetype 4, $53
	octave 5
	note D_, 3
	;
	notetype 4, $93
	octave 5
	note A_, 1
	notetype 4, $83
	octave 4
	note A_, 2
	notetype 4, $53
	octave 5
	note E_, 3
	;
	notetype 4, $93
	octave 4
	note A_, 1
	notetype 4, $83
	octave 3
	note A_, 2
	notetype 4, $53
	octave 5
	note A_, 3
	;
	notetype 4, $93
	octave 5
	note D_, 1
	notetype 4, $83
	octave 4
	note D_, 2
	notetype 4, $53
	note A_, 3
	;
	notetype 4, $93
	octave 5
	note E_, 1
	notetype 4, $83
	octave 4
	note E_, 2
	notetype 4, $53
	octave 5
	note D_, 3
	;FRAME 13
	notetype 4, $93
	octave 4
	note G_, 1
	notetype 4, $83
	octave 3
	note G_, 2
	notetype 4, $53
	octave 5
	note E_, 3
	sound_call .sub8
	notetype 4, $93
	octave 5
	note C_, 1
	notetype 4, $83
	octave 4
	note C_, 2
	notetype 4, $93
	octave 5
	note E_, 1
	notetype 4, $83
	octave 4
	note E_, 2
	notetype 4, $83
	octave 5
	note G#, 1
	notetype 4, $73
	octave 4
	note G#, 2
	notetype 4, $83
	octave 6
	note C_, 1
	notetype 4, $73
	octave 5
	note C_, 2
	;
	notetype 4, $73
	octave 5
	note C_, 1
	notetype 4, $63
	octave 4
	note C_, 2
	notetype 4, $73
	octave 5
	note E_, 1
	notetype 4, $63
	octave 4
	note E_, 2
	notetype 4, $63
	octave 5
	note G#, 1
	notetype 4, $53
	octave 4
	note G#, 2
	notetype 4, $63
	octave 6
	note C_, 1
	notetype 4, $53
	octave 5
	note C_, 2
	;
	notetype 4, $53
	octave 5
	note C_, 1
	notetype 4, $43
	octave 4
	note C_, 2
	notetype 4, $53
	octave 5
	note E_, 1
	notetype 4, $43
	octave 4
	note E_, 2
	notetype 4, $43
	octave 5
	note G#, 1
	notetype 4, $33
	octave 4
	note G#, 2
	notetype 4, $43
	octave 6
	note C_, 1
	notetype 4, $33
	octave 5
	note C_, 2
	sound_loop 0, .mainloop
	
.sub1: ; c g c
	octave 3
	note C_, 1
	note G_, 1
	octave 4
	note C_, 1
	sound_ret
	
.sub2: ; c f c
	octave 3
	note C_, 1
	note F_, 1
	octave 4
	note C_, 1
	sound_ret
	
.sub3: ; c f# c
	octave 3
	note C_, 1
	note F#, 1
	octave 4
	note C_, 1
	sound_ret
	
.sub4: ; c d# c
	octave 3
	note C_, 1
	note D#, 1
	octave 4
	note C_, 1
	sound_ret
	
.sub5: ;c oct 5
	notetype 4, $D7
	octave 6
	note C_, 1
	notetype 4, $B7
	octave 5
	note C_, 2
	sound_ret
	
.sub6: ;b fall
	notetype 4, $70
	transpose 0, 0
	octave 3
	note A#, 1
	note A_, 1
	note G#, 1
	notetype 4, $60
	note G_, 1
	note F#, 1
	note F_, 1
	notetype 4, $50
	note E_, 1
	note D#, 1
	note D_, 1
	notetype 4, $40
	note C#, 1
	note C_, 1
	octave 2
	note B_, 1
	sound_ret
	
.sub7: ;c oct 5 FOLLIN ORG BABYYYYYYYYYYYYYYY
	notetype 4, $B7
	octave 5
	note C_, 1
	octave 6
	note G_, 1
	octave 5
	note C_, 1
	notetype 12, $B7
	sound_ret
	
.sub8: ;aaa
	;
	notetype 4, $93
	octave 4
	note A_, 1
	notetype 4, $83
	octave 3
	note A_, 2
	notetype 4, $53
	octave 4
	note G_, 3
	;
	notetype 4, $93
	octave 5
	note C_, 1
	notetype 4, $83
	octave 4
	note C_, 2
	notetype 4, $53
	note A_, 3
	;
	notetype 4, $93
	octave 5
	note D_, 1
	notetype 4, $83
	octave 4
	note D_, 2
	notetype 4, $53
	octave 5
	note C_, 3
	;
	notetype 4, $93
	octave 5
	note G_, 1
	notetype 4, $83
	octave 4
	note G_, 2
	notetype 4, $53
	octave 5
	note D_, 3
	;
	notetype 4, $93
	octave 4
	note G_, 1
	notetype 4, $83
	octave 3
	note G_, 2
	notetype 4, $53
	octave 5
	note G_, 3
	;
	notetype 4, $93
	octave 5
	note C_, 1
	notetype 4, $83
	octave 4
	note C_, 2
	notetype 4, $53
	note G_, 3
	;
	notetype 4, $93
	octave 5
	note D_, 1
	notetype 4, $83
	octave 4
	note D_, 2
	notetype 4, $53
	octave 5
	note C_, 3
	;
	notetype 4, $93
	octave 5
	note G_, 1
	notetype 4, $83
	octave 4
	note G_, 2
	notetype 4, $53
	octave 5
	note D_, 3
	;
	notetype 4, $93
	octave 4
	note G_, 1
	notetype 4, $83
	octave 3
	note G_, 2
	notetype 4, $53
	octave 5
	note G_, 3
	;
	notetype 4, $93
	octave 5
	note C_, 1
	notetype 4, $83
	octave 4
	note C_, 2
	notetype 4, $53
	note G_, 3
	;
	notetype 4, $93
	octave 5
	note D_, 1
	notetype 4, $83
	octave 4
	note D_, 2
	notetype 4, $53
	octave 5
	note C_, 3
	;
	notetype 4, $93
	octave 5
	note G_, 1
	notetype 4, $83
	octave 4
	note G_, 2
	notetype 4, $53
	octave 5
	note D_, 3
	;
	notetype 4, $93
	octave 4
	note G_, 1
	notetype 4, $83
	octave 3
	note G_, 2
	notetype 4, $53
	octave 5
	note G_, 3
	;
	notetype 4, $93
	octave 5
	note C_, 1
	notetype 4, $83
	octave 4
	note C_, 2
	notetype 4, $53
	note G_, 3
	;
	notetype 4, $93
	octave 5
	note D_, 1
	notetype 4, $83
	octave 4
	note D_, 2
	notetype 4, $53
	octave 5
	note C_, 3
	;;;
	dutycycle $1
	notetype 4, $93
	octave 4
	note A_, 1
	notetype 4, $83
	octave 3
	note A_, 2
	notetype 4, $53
	octave 4
	note A_, 3
	;
	notetype 4, $93
	octave 4
	note A#, 1
	notetype 4, $83
	octave 3
	note A#, 2
	notetype 4, $53
	octave 4
	note A_, 3
	;
	notetype 4, $93
	octave 5
	note D_, 1
	notetype 4, $83
	octave 4
	note D_, 2
	notetype 4, $53
	note A#, 3
	;
	notetype 4, $93
	octave 5
	note E_, 1
	notetype 4, $83
	octave 4
	note E_, 2
	notetype 4, $53
	octave 5
	note D_, 3
	;
	notetype 4, $93
	octave 5
	note A_, 1
	notetype 4, $83
	octave 4
	note A_, 2
	notetype 4, $53
	octave 5
	note E_, 3
	;
	notetype 4, $93
	octave 4
	note A_, 1
	notetype 4, $83
	octave 3
	note A_, 2
	notetype 4, $53
	octave 5
	note A_, 3
	;
	notetype 4, $93
	octave 5
	note D_, 1
	notetype 4, $83
	octave 4
	note D_, 2
	notetype 4, $53
	note A_, 3
	;
	notetype 4, $93
	octave 5
	note E_, 1
	notetype 4, $83
	octave 4
	note E_, 2
	notetype 4, $53
	octave 5
	note D_, 3
	sound_ret

Music_Yotsuba_Ch3:
	notetype $C, $14
	sound_call .sub1
	notetype $4, $14
	octave 1
	note A_, 2
	notetype $C, $14
	note A_, 14
	transpose 0, 11
	sound_call .sub3
	sound_call .sub4
	transpose 0, 7
	sound_call .sub3
	sound_call .sub4
	transpose 0, 4
	sound_call .sub3
	;
	transpose 0, 0
	sound_call .sub1
	notetype $4, $14
	octave 1
	note A#, 2
	notetype $C, $14
	note A#, 14
	sound_call .sub1
	notetype $4, $14
	octave 1
	note A#, 2
	notetype $C, $14
	note A#, 6
	sound_call .sub1
	notetype $4, $14
	octave 1
	note A#, 2
	sound_call .sub1
	notetype $4, $14
	octave 1
	note A#, 2
	notetype $C, $14
	note A#, 4
	;
	sound_call .sub2
	note __, 6
	notetype $C, $14
	note B_, 4
	sound_call .sub2
	note __, 6
	notetype $C, $14
	note B_, 4
	sound_call .sub2
	note __, 6
	notetype $C, $14
	note B_, 4
	sound_call .sub2
	note __, 6
	sound_call .sub1
	octave 1
	notetype $4, $14
	note B_, 8
	sound_call .sub2
	note __, 6
	sound_call .sub1
	octave 2
	notetype $4, $14
	note E_, 8
	sound_call .sub2
	note __, 6
	octave 2
	notetype $4, $14
	note E_, 6
	sound_call .sub2
	sound_call .sub2
	sound_call .sub2
	sound_call .sub1
	octave 1
	notetype $4, $14
	note G_, 8
	sound_call .sub2
	sound_call .sub2
	sound_call .sub2
	sound_call .sub2
.mainloop:
	;FRAME 02
	sound_call .sub2
	note __, 6
	notetype $4, $14
	note A_, 12
	sound_call .sub2
	note __, 6
	notetype $4, $14
	note A_, 12
	sound_call .sub2
	note __, 6
	notetype $4, $14
	note A_, 12
	sound_call .sub2
	note __, 6
	sound_call .sub1
	notetype $4, $14
	octave 1
	note A_, 8
	sound_call .sub2
	note __, 6
	notetype $4, $14
	note A#, 12
	sound_call .sub2
	note __, 6
	notetype $4, $14
	note A#, 12
	sound_call .sub2
	note __, 6
	notetype $4, $14
	note A#, 12
	sound_call .sub2
	note __, 6
	sound_call .sub2
	sound_call .sub2
	;FRAME 03
	sound_call .sub2
	note __, 6
	notetype $4, $14
	note A_, 12
	sound_call .sub2
	note __, 6
	notetype $4, $14
	note A_, 12
	sound_call .sub2
	note __, 6
	notetype $4, $14
	note A_, 12
	sound_call .sub2
	note __, 6
	sound_call .sub1
	notetype $4, $14
	octave 1
	note A_, 8
	sound_call .sub2
	note __, 6
	notetype $4, $14
	octave 2
	note D_, 12
	sound_call .sub2
	note __, 6
	notetype $4, $14
	octave 2
	note D_, 12
	sound_call .sub2
	note __, 6
	notetype $4, $14
	note G_, 12
	sound_call .sub2
	note __, 6
	sound_call .sub1
	notetype $4, $14
	octave 1
	note G#, 8
	;FRAME 04
	sound_call .sub2
	note __, 6
	notetype $4, $14
	note A_, 12
	sound_call .sub2
	note __, 6
	notetype $4, $14
	note A_, 12
	sound_call .sub2
	note __, 6
	notetype $4, $14
	note A_, 12
	sound_call .sub2
	note __, 6
	sound_call .sub1
	notetype $4, $14
	octave 1
	note A_, 8
	sound_call .sub2
	note __, 6
	notetype $4, $14
	note A#, 12
	sound_call .sub2
	note __, 6
	notetype $4, $14
	note A#, 12
	sound_call .sub2
	note __, 6
	notetype $4, $14
	note A#, 12
	sound_call .sub2
	note __, 6
	sound_call .sub2
	sound_call .sub2
	;FRAME 05
	sound_call .sub2
	note __, 6
	notetype $4, $14
	note B_, 12
	sound_call .sub2
	note __, 6
	notetype $4, $14
	note B_, 12
	sound_call .sub2
	note __, 6
	notetype $4, $14
	note B_, 12
	sound_call .sub2
	note __, 6
	sound_call .sub1
	notetype $4, $14
	octave 1
	note B_, 8
	sound_call .sub2
	note __, 6
	sound_call .sub1
	notetype $4, $14
	note E_, 8
	sound_call .sub2
	note __, 6
	notetype $4, $14
	octave 2
	note E_, 12
	sound_call .sub2
	note __, 6
	notetype $4, $14
	octave 2
	note E_, 12
	sound_call .sub2
	sound_call .sub2
	notetype $4, $14
	octave 2
	note E_, 6
	sound_call .sub2
	;FRAME 06
	sound_call .sub2
	note __, 6
	notetype $4, $14
	note A_, 12
	sound_call .sub2
	note __, 6
	notetype $4, $14
	note A_, 12
	sound_call .sub2
	note __, 6
	notetype $4, $14
	note A_, 12
	sound_call .sub2
	note __, 6
	sound_call .sub1
	notetype $4, $14
	octave 1
	note A_, 8
	sound_call .sub2
	note __, 6
	notetype $4, $14
	note A#, 12
	sound_call .sub2
	note __, 6
	notetype $4, $14
	note A#, 12
	sound_call .sub2
	note __, 6
	notetype $4, $14
	note A#, 12
	sound_call .sub2
	note __, 6
	sound_call .sub2
	sound_call .sub2
	;FRAME 07
	sound_call .sub2
	note __, 6
	notetype $4, $14
	note A_, 12
	sound_call .sub2
	note __, 6
	notetype $4, $14
	note A_, 12
	sound_call .sub2
	note __, 6
	notetype $4, $14
	note A_, 12
	sound_call .sub2
	note __, 6
	sound_call .sub1
	notetype $4, $14
	octave 1
	note A_, 8
	sound_call .sub2
	note __, 6
	notetype $4, $14
	octave 2
	note D_, 12
	sound_call .sub2
	note __, 6
	notetype $4, $14
	octave 2
	note D_, 12
	sound_call .sub2
	note __, 6
	notetype $4, $14
	note G_, 12
	sound_call .sub2
	note __, 6
	sound_call .sub1
	notetype $4, $14
	octave 1
	note G#, 8
	;FRAME 08
	sound_call .sub2
	note __, 6
	notetype $4, $14
	note A_, 12
	sound_call .sub2
	note __, 6
	notetype $4, $14
	note A_, 12
	sound_call .sub2
	note __, 6
	notetype $4, $14
	note A_, 12
	sound_call .sub2
	note __, 6
	sound_call .sub1
	notetype $4, $14
	octave 1
	note A_, 8
	sound_call .sub2
	note __, 6
	notetype $4, $14
	note A#, 12
	sound_call .sub2
	note __, 6
	notetype $4, $14
	note A#, 12
	sound_call .sub2
	note __, 6
	notetype $4, $14
	note A#, 12
	sound_call .sub2
	note __, 6
	sound_call .sub2
	sound_call .sub2
	;FRAME 09
	sound_call .sub2
	note __, 6
	notetype $4, $14
	octave 2
	note D_, 12
	sound_call .sub2
	note __, 6
	notetype $4, $14
	octave 2
	note D_, 12
	sound_call .sub2
	note __, 6
	notetype $4, $14
	octave 2
	note D_, 12
	sound_call .sub2
	note __, 6
	sound_call .sub1
	notetype $4, $14
	note D_, 8
	sound_call .sub2
	note __, 6
	sound_call .sub1
	notetype $4, $14
	note E_, 8
	sound_call .sub2
	note __, 6
	notetype $4, $14
	octave 2
	note E_, 12
	sound_call .sub2
	note __, 6
	notetype $4, $14
	octave 2
	note D_, 12
	sound_call .sub2
	sound_call .sub2
	notetype $4, $14
	octave 2
	note D_, 6
	sound_call .sub2
	;FRAME 0A
	sound_call .sub2
	note __, 6
	notetype $4, $14
	octave 2
	note C#, 12
	sound_call .sub2
	note __, 6
	notetype $4, $14
	octave 2
	note C#, 12
	sound_call .sub2
	note __, 6
	notetype $4, $14
	octave 2
	note C#, 12
	sound_call .sub2
	note __, 6
	sound_call .sub1
	notetype $4, $14
	note C#, 8
	sound_call .sub2
	note __, 6
	notetype $4, $14
	octave 2
	note C_, 12
	sound_call .sub2
	note __, 6
	notetype $4, $14
	octave 2
	note C_, 12
	sound_call .sub2
	note __, 6
	notetype $4, $14
	octave 2
	note C_, 12
	sound_call .sub2
	note __, 6
	sound_call .sub2
	sound_call .sub2
	;FRAME 0B
	sound_call .sub2
	note __, 6
	notetype $4, $14
	octave 2
	note C#, 12
	sound_call .sub2
	note __, 6
	notetype $4, $14
	octave 2
	note C#, 12
	sound_call .sub2
	note __, 6
	notetype $4, $14
	octave 2
	note C#, 12
	sound_call .sub2
	note __, 6
	sound_call .sub1
	notetype $4, $14
	note C#, 8
	sound_call .sub2
	note __, 6
	notetype $4, $14
	octave 2
	note E_, 12
	sound_call .sub2
	note __, 6
	notetype $4, $14
	octave 2
	note E_, 12
	sound_call .sub2
	note __, 6
	notetype $4, $14
	octave 2
	note E_, 12
	sound_call .sub2
	note __, 6
	sound_call .sub1
	notetype $4, $14
	note E_, 8
	;FRAME 0C
	sound_call .sub2
	note __, 6
	notetype $4, $14
	octave 2
	note C#, 12
	sound_call .sub2
	note __, 6
	notetype $4, $14
	octave 2
	note C#, 12
	sound_call .sub2
	note __, 6
	notetype $4, $14
	octave 2
	note C#, 12
	sound_call .sub2
	note __, 6
	sound_call .sub1
	notetype $4, $14
	note C#, 8
	sound_call .sub2
	note __, 6
	notetype $4, $14
	octave 2
	note C_, 12
	sound_call .sub2
	note __, 6
	notetype $4, $14
	octave 2
	note C_, 12
	sound_call .sub2
	note __, 6
	notetype $4, $14
	octave 2
	note C_, 12
	sound_call .sub2
	note __, 6
	sound_call .sub2
	sound_call .sub2
	;FRAME 0D
	sound_call .sub2
	note __, 6
	notetype $4, $14
	note A_, 12
	sound_call .sub2
	note __, 6
	notetype $4, $14
	note A_, 12
	sound_call .sub2
	note __, 6
	notetype $4, $14
	note A_, 12
	sound_call .sub2
	note __, 6
	sound_call .sub1
	notetype $4, $14
	octave 1
	note A_, 8
	sound_call .sub2
	note __, 6
	sound_call .sub1
	notetype $4, $14
	octave 1
	note B_, 8
	sound_call .sub2
	note __, 6
	notetype $4, $14
	note B_, 12
	sound_call .sub2
	note __, 6
	notetype $4, $14
	octave 2
	note D_, 12
	sound_call .sub2
	sound_call .sub2
	notetype $4, $14
	note D_, 6
	sound_call .sub2
	;FRAME 0E
	sound_call .sub2
	note __, 6
	notetype $4, $14
	octave 2
	note E_, 12
	sound_call .sub2
	note __, 6
	notetype $4, $14
	octave 2
	note E_, 12
	sound_call .sub2
	note __, 6
	notetype $4, $14
	octave 2
	note D_, 12
	sound_call .sub2
	note __, 6
	sound_call .sub1
	notetype $4, $14
	note D_, 8
	sound_call .sub2
	note __, 6
	notetype $4, $14
	octave 2
	note C_, 12
	sound_call .sub2
	note __, 6
	notetype $4, $14
	octave 2
	note C_, 12
	sound_call .sub2
	note __, 6
	notetype $4, $14
	note B_, 12
	sound_call .sub2
	note __, 6
	sound_call .sub2
	sound_call .sub2
	;FRAME 0F
	sound_call .sub2
	note __, 6
	notetype $4, $14
	note A_, 12
	sound_call .sub2
	note __, 6
	notetype $4, $14
	note A_, 12
	sound_call .sub2
	note __, 6
	notetype $4, $14
	octave 2
	note D_, 12
	sound_call .sub2
	note __, 6
	sound_call .sub1
	notetype $4, $14
	note D_, 8
	sound_call .sub2
	note __, 6
	notetype $4, $14
	note G_, 12
	sound_call .sub2
	note __, 6
	notetype $4, $14
	note G_, 12
	sound_call .sub2
	note __, 6
	transpose 0, 11
	sound_call .sub4
	transpose 0, 7
	sound_call .sub4
	transpose 0, 0
	sound_call .sub2
	note __, 6
	transpose 0, 7
	sound_call .sub4
	transpose 0, 4
	sound_call .sub4
	transpose 0, 0
	;FRAME 10
	sound_call .sub2
	note __, 6
	notetype $4, $14
	octave 2
	note E_, 12
	sound_call .sub2
	note __, 6
	notetype $4, $14
	octave 2
	note E_, 12
	sound_call .sub2
	note __, 6
	notetype $4, $14
	octave 2
	note D_, 12
	sound_call .sub2
	note __, 6
	sound_call .sub1
	notetype $4, $14
	note D_, 8
	sound_call .sub2
	note __, 6
	notetype $4, $14
	octave 2
	note C#, 12
	sound_call .sub2
	note __, 6
	notetype $4, $14
	octave 2
	note C#, 12
	sound_call .sub2
	note __, 6
	notetype $4, $14
	octave 2
	note C_, 12
	sound_call .sub2
	note __, 6
	sound_call .sub2
	sound_call .sub2
	;FRAME 11
	notetype $4, $1B
	octave 4
	note D_, 1
	octave 3
	note G_, 1
	note D_, 1
	octave 2
	note G_, 1
	note D_, 1
	octave 1
	note A_, 7
	notetype $4, $14
	note A_, 12
	notetype $4, $1B
	octave 4
	note D_, 1
	octave 3
	note G_, 1
	note D_, 1
	octave 2
	note G_, 1
	note D_, 1
	octave 1
	note A_, 7
	notetype $4, $14
	note A_, 6
	sound_call .sub2
	;
	notetype $4, $1B
	octave 4
	note D_, 1
	octave 3
	note G_, 1
	note D_, 1
	octave 2
	note G_, 1
	note D_, 1
	octave 1
	note B_, 7
	notetype $4, $14
	note B_, 12
	notetype $4, $1B
	octave 4
	note D_, 1
	octave 3
	note G_, 1
	note D_, 1
	octave 2
	note G_, 1
	note D_, 1
	octave 1
	note B_, 7
	notetype $4, $1B
	octave 4
	note D_, 1
	octave 3
	note G_, 1
	note D_, 1
	octave 2
	note G_, 1
	octave 1
	notetype $4, $14
	note B_, 8
	;
	notetype $4, $1B
	octave 4
	note D_, 1
	octave 3
	note G_, 1
	note D_, 1
	octave 2
	note G_, 1
	note D_, 1
	octave 1
	note F_, 7
	notetype $4, $14
	note F_, 12
	notetype $4, $1B
	octave 4
	note D_, 1
	octave 3
	note G_, 1
	note D_, 1
	octave 2
	note G_, 1
	note D_, 1
	octave 1
	note F_, 7
	notetype $4, $14
	note F_, 6
	sound_call .sub2
	;
	notetype $4, $1B
	octave 4
	note D_, 1
	octave 3
	note G_, 1
	note D_, 1
	octave 2
	note G_, 1
	note D_, 1
	octave 1
	note F_, 7
	notetype $4, $14
	note F_, 12
	sound_call .sub2
	sound_call .sub2
	sound_call .sub2
	sound_call .sub2
	;FRAME 12
	sound_call .sub2
	note __, 6
	notetype $4, $14
	note A_, 12
	sound_call .sub2
	note __, 6
	notetype $4, $14
	note A_, 12
	sound_call .sub2
	note __, 6
	notetype $4, $14
	note A_, 12
	sound_call .sub2
	note __, 6
	sound_call .sub1
	notetype $4, $14
	octave 1
	note A_, 8
	sound_call .sub2
	note __, 6
	notetype $4, $14
	note A#, 12
	sound_call .sub2
	note __, 6
	notetype $4, $14
	note A#, 12
	sound_call .sub2
	note __, 6
	notetype $4, $14
	note A#, 12
	sound_call .sub2
	note __, 6
	sound_call .sub2
	sound_call .sub2
	;FRAME 13
	sound_call .sub2
	note __, 6
	notetype $4, $14
	note A_, 12
	sound_call .sub2
	note __, 6
	notetype $4, $14
	note A_, 12
	sound_call .sub2
	note __, 6
	notetype $4, $14
	note A_, 12
	sound_call .sub2
	note __, 6
	sound_call .sub1
	notetype $4, $14
	octave 1
	note A_, 8
	sound_call .sub2
	note __, 6
	notetype $4, $14
	octave 2
	note D_, 12
	sound_call .sub2
	note __, 6
	notetype $4, $14
	octave 2
	note D_, 12
	sound_call .sub2
	note __, 6
	notetype $4, $14
	note G_, 12
	sound_call .sub2
	note __, 6
	sound_call .sub1
	notetype $4, $14
	octave 1
	note G#, 8
	sound_loop 0, .mainloop
	
	
.sub1: ;kick cut off by note
	notetype $4, $1B
	octave 4
	note D_, 1
	octave 3
	note G_, 1
	note D_, 1
	octave 2
	note G_, 1
	sound_ret
	
.sub2: ;full kick
	notetype $4, $1B
	octave 4
	note D_, 1
	octave 3
	note G_, 1
	note D_, 1
	octave 2
	note G_, 1
	note D_, 1
	octave 1
	note G_, 1
	sound_ret
	
.sub3: ;full tom at C-4, tranpose up 4 for E-4, 7 for G-4, 11 for B-1
	notetype $4, $1B
	octave 4
	note C_, 1
	octave 3
	note B_, 1
	note A_, 1
	note G_, 1
	note F_, 1
	note E_, 1
	note D_, 1
	note C_, 1
	octave 2
	note B_, 1
	note A_, 1
	note G_, 1
	note F_, 1
	sound_ret
	
.sub4: ;half tom at C-4, tranpose up 4 for E-4, 7 for G-4, 11 for B-1
	notetype $4, $1B
	octave 4
	note C_, 1
	octave 3
	note B_, 1
	note A_, 1
	note G_, 1
	note F_, 1
	note E_, 1
	sound_ret
	

Music_Yotsuba_Ch4:
	togglenoise $5
	notetype 12
	note G#, 16
	note A_, 4
	note A_, 2
	note A_, 4
	note A_, 2
	note A_, 4
	note G#, 16
	note A_, 8
	note A_, 2
	note A_, 6
	;
	note G#, 6
	note E_, 2
	note A_, 2
	note E_, 2
	note E_, 2
	note A_, 2
	note B_, 2
	note E_, 2
	note E_, 2
	note E_, 2
	note A_, 2
	note E_, 2
	note B_, 2
	note E_, 2
	note G#, 4
	note A_, 2
	note E_, 2
	note A_, 2
	note E_, 2
	note E_, 2
	note A_, 2
	note B_, 2
	note A_, 2
	note A_, 2
	note E_, 2
	note A_, 2
	note A_, 2
	note A_, 2
	note A_, 2
.mainloop:
	sound_call .sub1
	sound_call .sub2
	;
	sound_call .sub1
	sound_call .sub3
	;
	sound_call .sub1
	sound_call .sub2
	;
	sound_call .sub1
	sound_call .sub4
	;
	sound_call .sub1
	sound_call .sub2
	;
	sound_call .sub1
	sound_call .sub3
	;
	sound_call .sub1
	sound_call .sub2
	;
	sound_call .sub1
	sound_call .sub4
	;
	sound_call .sub1
	sound_call .sub2
	;
	sound_call .sub1
	sound_call .sub3
	;
	sound_call .sub1
	sound_call .sub2
	;
	sound_call .sub1
	sound_call .sub4
	;
	sound_call .sub1
	sound_call .sub2
	;
	sound_call .sub1
	sound_call .sub5
	;
	sound_call .sub1
	sound_call .sub2
	;
	note G#, 8
	note A_, 4
	note E_, 2
	note A_, 2
	note G#, 8
	note A_, 4
	note B_, 2
	note E_, 2
	note G#, 8
	note A_, 4
	note E_, 2
	note A_, 2
	note G#, 4
	note B_, 4
	note A_, 2
	note A_, 2
	note A_, 2
	note A_, 2
	;
	sound_call .sub1
	sound_call .sub2
	;
	sound_call .sub1
	sound_call .sub3
	sound_loop 0, .mainloop

.sub1: ;start of every frame except intro ones and 04
	note B_, 2
	note E_, 2
	note E_, 2
	note E_, 2
	note A_, 2
	note E_, 2
	note E_, 2
	note A_, 2
	note B_, 2
	note E_, 2
	note E_, 2
	note E_, 2
	note A_, 2
	note E_, 2
	note B_, 2
	note E_, 2
	sound_ret
.sub2: ;00
	note B_, 2
	note E_, 2
	note E_, 2
	note E_, 2
	note A_, 2
	note E_, 2
	note E_, 2
	note A_, 2
	note B_, 2
	note E_, 2
	note E_, 2
	note E_, 2
	note A_, 2
	note E_, 2
	note B_, 2
	note B_, 2
	sound_ret
.sub3: ;01
	note B_, 2
	note E_, 2
	note E_, 2
	note E_, 2
	note A_, 2
	note E_, 2
	note E_, 2
	note A_, 2
	note B_, 2
	note E_, 2
	note E_, 2
	note E_, 2
	note A_, 2
	note E_, 2
	note A_, 2
	note A_, 2
	sound_ret
.sub4: ;02
	note G#, 4
	note A_, 2
	note E_, 2
	note A_, 2
	note E_, 2
	note E_, 2
	note A_, 2
	note B_, 2
	note A_, 2
	note A_, 2
	note E_, 2
	note B_, 2
	note A_, 2
	note E_, 2
	note A_, 2
	sound_ret
.sub5: ;03
	note B_, 2
	note E_, 2
	note E_, 2
	note E_, 2
	note A_, 2
	note E_, 2
	note E_, 2
	note A_, 2
	note G#, 4
	note B_, 2
	note B_, 2
	note G#, 4
	note B_, 2
	note B_, 2
	sound_ret