Music_Yuggromi:
	channel_count 3
	channel 1, Music_Yuggromi_Ch1
	channel 2, Music_Yuggromi_Ch2
	channel 3, Music_Yuggromi_Ch3

Music_Yuggromi_Ch1:
	tempo 107
	volume 7, 7
	duty_cycle 3
	pitch_offset 2
	vibrato 16, 2, 5
	note_type 12, 11, 2
	octave 4
	note C_, 1
	octave 3
	note B_, 1
	note A#, 1
	note A_, 1;
	note A#, 1
	note A_, 1
	note G#, 1
	note G_, 1;
	note G#, 1
	note G_, 1
	note F#, 1
	note F_, 1;
	note F#, 1
	note F_, 1
	note E_, 1
	note D#, 1;
	note E_, 1
	note D#, 1
	note D_, 1
	note C#, 1
	note F#, 1
	note F_, 1
	note E_, 1
	note D#, 1
	note A_, 1
	note G#, 1
	note G_, 1
	note F#, 1
	note B_, 1
	note A#, 1
	note A_, 1
	note G#, 1
	volume_envelope 11, 5
	octave 4
	note C#, 6
	octave 3
	sound_call .subintro
	note G#, 2
	note G#, 2
	note G#, 2
	note F_, 8
	sound_call .subintro
	volume_envelope 11, 4
	note G#, 2
	volume_envelope 11, 3
	note G#, 4
.main:
	duty_cycle 0
	volume_envelope 11, 4
	note F_, 3
	volume_envelope 10, 2
	note C#, 1
	octave 2
	note A#, 1
	note F_, 1
	note A#, 1
	octave 3
	note C#, 1
	sound_call .FCsAs
	note F_, 1
	note C#, 1
	octave 2
	note A#, 1
	note F_, 1
	octave 3
	sound_call .FCsAs
	sound_call .FCsAs
	note F_, 1
	note C#, 1
	octave 2
	note A#, 1
	note F_, 1
	octave 3
	sound_call .FsECsAs
	sound_call .FsECsAs
	note F#, 1
	note E_, 1
	note C#, 1
	octave 2
	note A#, 1
	octave 3
	note F#, 1
	note E_, 1
	note C#, 1
	octave 2
	note A#, 1
	octave 4
	note F#, 1
	octave 3
	note E_, 1
	note C#, 1
	octave 2
	note A#, 1
	octave 4
	note E_, 1
	octave 3
	note E_, 1
	note C#, 1
	octave 2
	note A#, 1
	octave 4
	note C#, 1
	octave 3
	note E_, 1
	note C#, 1
	octave 2
	note A#, 1
	;;;;;;;;;;;;;;;;;;;;;
	octave 4
	note F_, 1
	octave 3
	note C#, 1
	octave 2
	note A#, 1
	note F_, 1
	note A#, 1
	octave 3
	note C#, 1
	sound_call .FCsAs
	note F_, 1
	note C#, 1
	octave 2
	note A#, 1
	note F_, 1
	octave 3
	sound_call .FCsAs
	sound_call .FCsAs
	note F_, 1
	note C#, 1
	octave 2
	note A#, 1
	note F_, 1
	octave 3
	sound_call .DsCAsG
	sound_call .DsCAsG
	note D#, 1
	note C_, 1
	octave 2
	note A#, 1
	note G_, 1
	octave 3
	sound_call .DsCAsG
	sound_call .DsCAsG
	note D#, 1
	note C_, 1
	octave 2
	note A#, 1
	note G_, 1
	octave 3
	;;;;;;;;;;;;;;;;;;;;;;;;;;;;;;;;;;;;;;;;; key change
	sound_call .EBG
	sound_call .EBG
	note E_, 1
	octave 2
	note B_, 1
	note G_, 1
	note E_, 1
	octave 3
	sound_call .EBG
	sound_call .EBG
	note E_, 1
	octave 2
	note B_, 1
	note G_, 1
	note E_, 1
	octave 3
	sound_call .ECAsG
	sound_call .ECAsG
	note E_, 1
	note C_, 1
	octave 2
	note A#, 1
	note G_, 1
	octave 3
	note E_, 1
	note C_, 1
	octave 2
	note A#, 1
	note G_, 1
	octave 4
	note A#, 1
	octave 3
	note C_, 1
	octave 2
	note A#, 1
	note G_, 1
	octave 4
	note G_, 1
	octave 3
	note C_, 1
	octave 2
	note A#, 1
	note G_, 1
	octave 4
	note E_, 1
	octave 3
	note C_, 1
	octave 2
	note A#, 1
	note G_, 1
	;;;;;;;;;;;;;;;;;;;;;;;;;;;;;;;;;;;;
	octave 4
	note G_, 1
	octave 2
	note B_, 1
	note G_, 1
	note E_, 1
	note G_, 1
	note B_, 1
	octave 3
	sound_call .EBG
	note E_, 1
	octave 2
	note B_, 1
	note G_, 1
	note E_, 1
	octave 3
	sound_call .EBG
	sound_call .EBG
	note E_, 1
	octave 2
	note B_, 1
	note G_, 1
	note E_, 1
	octave 3
	sound_call .CsAFsD
	sound_call .CsAFsD
	note C#, 1
	octave 2
	note A_, 1
	note F#, 1
	note D_, 1
	octave 3
	note C#, 1
	octave 2
	note A_, 1
	note F#, 1
	note A_, 1
	octave 3
	note F#, 1
	note D_, 1
	octave 2
	note A_, 1
	octave 3
	note D_, 1
	note A_, 1
	note F#, 1
	note C#, 1
	note F#, 1
	octave 4
	note D_, 1
	octave 3
	note A_, 1
	note F#, 1
	note A_, 1
	;;;;;;;;;;;;;;;;;;;;;;;;;;
	duty_cycle 3
	volume_envelope 11, 5
	octave 4
	note E_, 6
	note C_, 6
	octave 3
	note G_, 4
	note B_, 6
	note E_, 6
	note F#, 4
	note A_, 8
	note F#, 8
	note E_, 8
	octave 2
	note B_, 8
	octave 3
	volume_envelope 11, 7
	note G_, 16
	note B_, 8
	octave 4
	note E_, 8
	note E_, 16
	octave 3
	note A_, 16
	octave 2
	volume_envelope 11, 6
	note A#, 4
	octave 3
	note C_, 4
	octave 2
	note A#, 4
	note G#, 4
	note A#, 16
	octave 4
	note C#, 4
	note D#, 4
	note C#, 4
	note C#, 4
	note C_, 8
	octave 3
	volume_envelope 11, 4
	note A_, 2
	volume_envelope 11, 3
	note A_, 4
	sound_loop 0, .main
	
.FCsAs:
	note F_, 1
	note C#, 1
	octave 2
	note A#, 1
	note F_, 1
	note A#, 1
	octave 3
	note C#, 1
	sound_ret
	
.FsECsAs:
	note F#, 1
	note E_, 1
	note C#, 1
	octave 2
	note A#, 1
	octave 3
	note C#, 1
	note E_, 1
	sound_ret
	
.DsCAsG:
	note D#, 1
	note C_, 1
	octave 2
	note A#, 1
	note G_, 1
	note A#, 1
	octave 3
	note C_, 1
	sound_ret
	
.EBG:
	note E_, 1
	octave 2
	note B_, 1
	note G_, 1
	note E_, 1
	note G_, 1
	note B_, 1
	octave 3
	sound_ret
	
.ECAsG:
	note E_, 1
	note C_, 1
	octave 2
	note A#, 1
	note G_, 1
	note A#, 1
	octave 3
	note C_, 1
	sound_ret
	
.CsAFsD:
	note C#, 1
	octave 2
	note A_, 1
	note F#, 1
	note D_, 1
	note F#, 1
	note A_, 1
	octave 3
	sound_ret
	
.subintro:
	note F_, 6
	note F_, 2
	note __, 2
	note F_, 6
	note F_, 2
	note F#, 2
	note F#, 2
	note F#, 2
	note F#, 8
	note F#, 6
	note F#, 2
	note __, 2
	note F#, 6
	note F#, 2
	sound_ret
	

Music_Yuggromi_Ch2:
	duty_cycle 3
	vibrato 32, 3, 6
	note_type 12, 12, 2
	pitch_offset 1
	sound_call .GAMEFREAKHASLITERALLYNOIDEAHOWTOOPTIMISE
	note G_, 1
	sound_call .GAMEFREAKHASLITERALLYNOIDEAHOWTOOPTIMISE
	note G_, 1
	sound_call .GAMEFREAKHASLITERALLYNOIDEAHOWTOOPTIMISE
	note G_, 1
	sound_call .GAMEFREAKHASLITERALLYNOIDEAHOWTOOPTIMISE
	note G_, 1
	sound_call .GAMEFREAKHASLITERALLYNOIDEAHOWTOOPTIMISE
	note G_, 1
	sound_call .GAMEFREAKHASLITERALLYNOIDEAHOWTOOPTIMISE
	note G#, 1
	sound_call .GAMEFREAKHASLITERALLYNOIDEAHOWTOOPTIMISE
	note A_, 1
	sound_call .GAMEFREAKHASLITERALLYNOIDEAHOWTOOPTIMISE
	note A#, 1
	octave 4
	volume_envelope 12, 5
	note A#, 6
	sound_call .sub1
	note D#, 2
	note D#, 2
	note D#, 2
	note C#, 8
	sound_call .sub1
	;occurs to me i could've done a really cute optimisation here by having this play a subloop at transpose 0, 0 and then the loop point plays it at tranpose 0, 1 before immediately correcting itself but Oh Well
	volume_envelope 12, 4
	note D#, 2
	volume_envelope 12, 3
	note D#, 4
.main:
	volume_envelope 12, 7
	octave 3
	note A#, 8
	sound_call .coolkid
	note C_, 8
	octave 3
	note A#, 8
	octave 4
	note C_, 8
	note D#, 8
	note E_, 6
	transpose 0, 6
	octave 3
	sound_call .coolkid
	volume_envelope 12, 0 ;this is how game freak does it, right?
	transpose 0, 0
	note F#, 8
	volume_envelope 12, 7
	note F#, 16
	note __, 8
	;;;;;;;;
	note G_, 12
	note E_, 2
	note G_, 2
	note B_, 2
	note A_, 2
	note G_, 2
	note F#, 2
	note E_, 2
	note F#, 2
	note G_, 2
	note E_, 2
	note F#, 12
	octave 3
	note D_, 2
	note F#, 2
	note A_, 2
	note G_, 2
	note F#, 2
	note E_, 2
	note D_, 2
	note E_, 2
	note F#, 2
	note A_, 2
	note B_, 16
	octave 4
	note E_, 8
	note A_, 8
	note G_, 16
	note E_, 16
	;
	octave 3
	note C#, 4
	note D#, 4
	note C#, 4
	octave 2
	note B_, 4
	octave 3
	note C#, 16
	octave 4
	note E_, 4
	note F#, 4
	note E_, 4
	note G_, 4
	note G#, 8
	volume_envelope 12, 4
	note E_, 2
	volume_envelope 12, 3
	note E_, 4
	sound_loop 0, .main
	
.coolkid: ;this is probably not optimal in filesize but it IS optimal in filesize:brainpower:effort ratio
	note F_, 6
	note F_, 2
	note A#, 2
	octave 4
	note D#, 2
	note C#, 2
	octave 3
	note B_, 2
	note A#, 2
	note G#, 2
	note A#, 2
	octave 4
	note C#, 2
	note D#, 2
	note E_, 16
	volume_envelope 0, 15
	note E_, 16
	volume_envelope 12, 7
	octave 3
	note A#, 6
	note F_, 6
	note F_, 2
	note A#, 2
	octave 4
	note D#, 4
	note D_, 4
	note C_, 4
	note D_, 4
	sound_ret
	
.sub1:
	note C#, 6
	note C#, 2
	note __, 2
	note C#, 6
	note C#, 2
	note C_, 2
	note C_, 2
	note C_, 2
	note C#, 8
	note C#, 6
	note C#, 2
	note __, 2
	note C#, 6
	note C#, 2
	sound_ret
	
.GAMEFREAKHASLITERALLYNOIDEAHOWTOOPTIMISE: ;if this subloop name confuses you, consider checking the equivilant portion of johtowildbattle.asm (and how johtowildbattlenight.asm refers to it). why? why would you do that?
	octave 4
	note F_, 1
	note F#, 1
	note G_, 1
	octave 5
	sound_ret

Music_Yuggromi_Ch3:
	note_type 12, 1, 1
	octave 4
	note G_, 2
	octave 5
	note D_, 2
	note_type 12, 1, 3
	octave 4
	note G_, 2
	octave 5
	note C#, 2
	note_type 12, 1, 2
	octave 4
	note F#, 2
	octave 5
	note C_, 2
	note_type 12, 1, 4
	octave 4
	note F#, 2
	note B_, 2
	note G_, 2
	note A#, 2
	note G_, 2
	note B_, 2
	note G#, 2
	octave 5
	note C_, 2
	octave 4
	note A_, 2
	octave 5
	note C#, 2
	;INTRO
	octave 4
	note A#, 2
	note F_, 2
	octave 3
	note A#, 2
	note F_, 2
	transpose 0, 10
	octave 2
	sound_call .b07
	sound_call .b07
	sound_call .b07
	transpose 0, 11
	sound_call .b07
	sound_call .b07
	sound_call .b07
	note C_, 2
	note G_, 2
	transpose 0, 10
	octave 3
	note C_, 2
	octave 2
	note G_, 2
	sound_call .b07
	sound_call .b07
	sound_call .b07
	sound_call .b07
	transpose 0, 11
	sound_call .b07
	sound_call .b07
	sound_call .b07
	note F#, 2 ;hahaha if something's fucked up this is going to be hell to decipher
	octave 1
	note F#, 2
.main:
	note __, 2
	transpose 0, 10
	octave 2
	note C_, 4 ;i could just do C_, 2 and then call .07 but you can hear that (which is why noticeable waveperc is impossible with base engine)
	note G_, 2
	note C_, 2
	note G_, 2
	sound_call .b07
	sound_call .b07
	sound_call .b07
	octave 3
	transpose 0, 1
	sound_call .b05
	sound_call .b05
	sound_call .b05
	sound_call .b05
	octave 2
	transpose 0, 10
	sound_call .b07
	sound_call .b07
	sound_call .b07
	sound_call .b07
	transpose 0, 0
	octave 3
	sound_call .b07
	sound_call .b07
	sound_call .b07
	sound_call .b07
	;;;;;;;;;;;;;;;;keychange
	transpose 0, 4
	octave 2
	sound_call .b07
	sound_call .b07
	sound_call .b07
	sound_call .b07
	transpose 0, 7
	sound_call .b05
	sound_call .b05
	sound_call .b05
	sound_call .b05
	transpose 0, 4
	sound_call .b07
	sound_call .b07
	sound_call .b07
	sound_call .b07
	transpose 0, 2
	sound_call .b07
	sound_call .b07
	sound_call .b07
	sound_call .b07
	;;;;;;;;;;;;;;;;;;;;;;;;;
	transpose 0, 0
	octave 3
	sound_call .b07
	sound_call .b07
	sound_call .b07
	sound_call .b07
	transpose 0, 11
	octave 2
	sound_call .b07
	sound_call .b07
	sound_call .b07
	sound_call .b07
	sound_call .b05
	sound_call .b05
	sound_call .b05
	sound_call .b05
	transpose 0, 9
	sound_call .b07
	sound_call .b07
	sound_call .b07
	sound_call .b07
	transpose 0, 10
	sound_call .b07
	sound_call .b07
	sound_call .b07
	sound_call .b07
	transpose 0, 8
	sound_call .b08
	sound_call .b08
	sound_call .b08
	transpose 0, 0
	octave 3
	note F#, 2
	octave 2
	note F#, 2
	sound_loop 0, .main
	
.b07:
	note C_, 2
	note G_, 2
	note C_, 2
	note G_, 2
	sound_ret
	
.b05:
	note C_, 2
	note F_, 2
	note C_, 2
	note F_, 2
	sound_ret
	
.b08:
	note C_, 2
	note G#, 2
	note C_, 2
	note G#, 2
	sound_ret
